<?xml version="1.0" encoding="utf-8"?>
<!-- Generator: Adobe Illustrator 26.0.0, SVG Export Plug-In . SVG Version: 6.00 Build 0)  -->
<svg version="1.1" id="Uploaded_to_svgrepo.com" xmlns="http://www.w3.org/2000/svg" xmlns:xlink="http://www.w3.org/1999/xlink"
	 x="0px" y="0px" viewBox="0 0 30 20" style="enable-background:new 0 0 30 20;" xml:space="preserve">
<style type="text/css">
	.st0{fill:#4BC3B5;}
	.st1{fill:#1C2C54;}
</style>
<rect x="3.6" y="4.9" class="st0" width="8.1" height="7.8"/>
<rect x="18.8" y="4.9" class="st0" width="8.1" height="7.8"/>
<path class="st1" d="M29.8,12.6L29.8,12.6l-2.1-9.2C27.1,1.5,25.2,0,23,0c-1.6,0-3.1,0.8-4,2h-8c-0.9-1.2-2.3-2-4-2
	C4.8,0,2.9,1.5,2.3,3.5l-2.1,9.2l0,0C0.1,13.1,0,13.5,0,14c0,3.3,2.7,6,6,6c2.6,0,4.8-1.7,5.7-4h6.7c0.8,2.3,3,4,5.7,4
	c3.3,0,6-2.7,6-6C30,13.5,29.9,13.1,29.8,12.6z M9,10H8v1c0,0.6-0.4,1-1,1s-1-0.4-1-1v-1H5c-0.6,0-1-0.4-1-1s0.4-1,1-1h1V7
	c0-0.6,0.4-1,1-1s1,0.4,1,1v1h1c0.6,0,1,0.4,1,1S9.6,10,9,10z M24.2,11.3c-0.4,0.4-1,0.4-1.4,0s-0.4-1,0-1.4s1-0.4,1.4,0
	S24.6,10.9,24.2,11.3z M22.1,9.2c-0.4,0.4-1,0.4-1.4,0s-0.4-1,0-1.4s1-0.4,1.4,0S22.5,8.8,22.1,9.2z M26.3,9.2c-0.4,0.4-1,0.4-1.4,0
	s-0.4-1,0-1.4s1-0.4,1.4,0C26.7,8.2,26.7,8.8,26.3,9.2z M24.2,7.1c-0.4,0.4-1,0.4-1.4,0s-0.4-1,0-1.4s1-0.4,1.4,0S24.6,6.7,24.2,7.1
	z"/>
</svg>
