<?xml version="1.0" encoding="utf-8"?>
<!-- Generator: Adobe Illustrator 26.0.0, SVG Export Plug-In . SVG Version: 6.00 Build 0)  -->
<svg version="1.1" id="Layer_1" xmlns="http://www.w3.org/2000/svg" xmlns:xlink="http://www.w3.org/1999/xlink" x="0px" y="0px"
	 viewBox="0 0 28 28" style="enable-background:new 0 0 28 28;" xml:space="preserve">
<style type="text/css">
	.st0{fill:#1C2C54;}
	.st1{fill:#4BC3B5;}
</style>
<desc>Created with Sketch.</desc>
<path id="_xD83C__xDFA8_-Color" class="st0" d="M4,16l11,0c1.1,0,1.9,0.8,2,1.9l0,0.1v2.5c0,4.2-4.3,5.5-7.5,5.5
	c-3.1,0-7.3-1.2-7.5-5.3l0-0.2V18c0-1.1,0.8-1.9,1.9-2L4,16z M9.5,3c3,0,5.5,2.5,5.5,5.5S12.5,14,9.5,14S4,11.5,4,8.5S6.5,3,9.5,3z"
	/>
<path class="st1" d="M17.2,16l6.8,0c1.1,0,1.9,0.8,2,1.9l0,0.1v2c0,3.8-3.4,5-6,5c-1.1,0-2.3-0.2-3.3-0.7c0.8-0.9,1.2-2,1.3-3.5
	l0-0.3V18c0-0.7-0.2-1.3-0.7-1.9L17.2,16l6.8,0L17.2,16z"/>
<circle class="st1" cx="20.5" cy="9.5" r="4.5"/>
</svg>
