<?xml version="1.0" encoding="utf-8"?>
<!-- Generator: Adobe Illustrator 26.0.0, SVG Export Plug-In . SVG Version: 6.00 Build 0)  -->
<svg version="1.1" id="Layer_1" xmlns="http://www.w3.org/2000/svg" xmlns:xlink="http://www.w3.org/1999/xlink" x="0px" y="0px"
	 viewBox="0 0 362.5 473.7" style="enable-background:new 0 0 362.5 473.7;" xml:space="preserve">
<style type="text/css">
	.st0{fill:#1C2C54;}
	.st1{fill:#0A1630;}
	.st2{fill:#0A152B;}
	.st3{fill:#4BC3B5;}
</style>
<g>
	<path class="st0" d="M358.8,348.8c0,97.4-79,124.8-176.4,124.8C85,473.7,6,446.2,6,348.8s79-227.9,176.4-227.9
		C279.8,120.9,358.8,251.4,358.8,348.8z"/>
	<polygon class="st0" points="178.4,114.7 183.4,114.7 207.2,114.7 264,43.7 264,16.5 224.7,16.5 224.7,1.1 183.4,1.1 178.4,1.1 
		137.1,1.1 137.1,16.5 97.8,16.5 97.8,43.7 154.6,114.7 	"/>
</g>
<g>
	<polygon class="st1" points="224.7,16.5 187.8,107.6 247.5,16.6 	"/>
	<polygon class="st1" points="137.4,16.5 174.3,107.6 114.6,16.6 	"/>
	<polygon class="st1" points="155,160.4 179,135.5 140.3,160.4 	"/>
	<polygon class="st1" points="211.5,160.4 187.6,135.5 226.3,160.4 	"/>
</g>
<path class="st2" d="M216,121.8c0,4.2-3.4,7.6-7.6,7.6h-52.9c-4.2,0-7.6-3.4-7.6-7.6l0,0c0-4.2,3.4-7.6,7.6-7.6h52.9
	C212.5,114.2,216,117.6,216,121.8L216,121.8z"/>
<polygon class="st2" points="175.2,1.9 187.8,1.9 180.7,103.9 "/>
<g>
	<path class="st3" d="M208.1,367.4h-13.3h-13.3h-13.3v-13.3H155v-13.3h-13.3v-13.3h-13.3v-13.3V301h13.3v-13.3h-13.3v-13.3v-13.3
		h13.3v-13.3H155v-13.3h13.3v-13.3h13.3h13.3h13.3h13.3v13.3h13.3v13.3v13.3h-13.3h-13.3v-13.3h-13.3h-13.3v13.3h13.3h13.3v13.3
		v13.3h-13.3h-13.3h-13.3V301h13.3h13.3h13.3v13.3v13.3h-13.3h-13.3v13.3h13.3h13.3v-13.3h13.3h13.3v13.3v13.3h-13.3v13.3
		L208.1,367.4L208.1,367.4z"/>
</g>
</svg>
