<?xml version="1.0" encoding="utf-8"?>
<!-- Generator: Adobe Illustrator 26.0.0, SVG Export Plug-In . SVG Version: 6.00 Build 0)  -->
<svg version="1.1" id="Layer_1" xmlns="http://www.w3.org/2000/svg" xmlns:xlink="http://www.w3.org/1999/xlink" x="0px" y="0px"
	 viewBox="0 0 16 16" style="enable-background:new 0 0 16 16;" xml:space="preserve">
<style type="text/css">
	.st0{fill:#1C2C54;}
	.st1{fill:none;stroke:#4BC3B5;stroke-width:1.8;stroke-linecap:round;stroke-linejoin:round;stroke-miterlimit:10;}
</style>
<path class="st0" d="M11.1,0.6c1.5,0.6,2.7,1.6,3.6,2.9C15.5,4.9,16,6.4,16,8c0,0.6-0.4,1-1,1s-1-0.4-1-1c0-1.2-0.4-2.3-1-3.3
	c-0.7-1-1.6-1.8-2.7-2.2C9.2,2,8,1.9,6.8,2.1c-1.1,0.2-2.2,0.8-3,1.7c-0.9,0.8-1.5,1.9-1.7,3C1.9,8,2,9.2,2.5,10.3s1.2,2,2.2,2.7
	s2.1,1,3.3,1c0.6,0,1,0.4,1,1s-0.4,1-1,1c-1.6,0-3.1-0.5-4.4-1.3c-1.3-0.9-2.3-2.1-2.9-3.6C0,9.6-0.2,8,0.2,6.4
	c0.3-1.6,1.1-3,2.2-4.1s2.5-1.9,4.1-2.2C8-0.2,9.6,0,11.1,0.6z M8.5,4v3h2h0.1c0.5,0.1,0.9,0.5,0.9,1c0,0.6-0.4,1-1,1h-3H7.4
	C6.9,8.9,6.5,8.5,6.5,8V4V3.9C6.6,3.4,7,3,7.5,3C8.1,3,8.5,3.4,8.5,4z"/>
<polyline class="st1" points="9,12 10.8,15 14.8,10.3 "/>
</svg>
