<?xml version="1.0" encoding="utf-8"?>
<!-- Generator: Adobe Illustrator 26.0.0, SVG Export Plug-In . SVG Version: 6.00 Build 0)  -->
<svg version="1.1" id="Layer_1" xmlns="http://www.w3.org/2000/svg" xmlns:xlink="http://www.w3.org/1999/xlink" x="0px" y="0px"
	 viewBox="0 0 16 16" style="enable-background:new 0 0 16 16;" xml:space="preserve">
<style type="text/css">
	.st0{fill:#1C2C54;}
	.st1{fill:#4BC3B5;}
</style>
<path class="st0" d="M16,8c0.1-4.7-4.5-8.7-9.2-7.9C3,0.6-0.1,4.2,0,8.1c0.4,10.4,15.5,10.4,16,0V8z M11.3,13
	c-5.1,3.4-11.4-2.2-8.7-7.7C4,2.3,8,1.1,10.9,2.8C14.8,4.8,15,10.7,11.3,13z"/>
<path class="st1" d="M10.6,7h-0.1h-2V4c0-0.6-0.4-1-1-1C7,3,6.6,3.4,6.5,3.9V4v4c0,0.5,0.4,0.9,0.9,1h0.1h3c0.6,0,1-0.4,1-1
	C11.5,7.5,11.1,7.1,10.6,7z"/>
</svg>
