<?xml version="1.0" encoding="utf-8"?>
<!-- Generator: Adobe Illustrator 26.0.0, SVG Export Plug-In . SVG Version: 6.00 Build 0)  -->
<svg version="1.1" id="Layer_1" xmlns="http://www.w3.org/2000/svg" xmlns:xlink="http://www.w3.org/1999/xlink" x="0px" y="0px"
	 viewBox="0 0 16 16" style="enable-background:new 0 0 16 16;" xml:space="preserve">
<style type="text/css">
	.st0{fill:#1C2C54;}
	.st1{fill:#4BC3B5;}
</style>
<path class="st0" d="M11.1,0.6c1.5,0.6,2.7,1.6,3.6,2.9C15.5,4.9,16,6.4,16,8c0,0.6-0.4,1-1,1s-1-0.4-1-1c0-1.2-0.4-2.3-1-3.3
	c-0.7-1-1.6-1.8-2.7-2.2C9.2,2,8,1.9,6.8,2.1c-1.1,0.2-2.2,0.8-3,1.7c-0.9,0.8-1.5,1.9-1.7,3C1.9,8,2,9.2,2.5,10.3s1.2,2,2.2,2.7
	s2.1,1,3.3,1c0.6,0,1,0.4,1,1s-0.4,1-1,1c-1.6,0-3.1-0.5-4.4-1.3c-1.3-0.9-2.3-2.1-2.9-3.6C0,9.6-0.2,8,0.2,6.4
	c0.3-1.6,1.1-3,2.2-4.1s2.5-1.9,4.1-2.2C8-0.2,9.6,0,11.1,0.6z M8,3c0.5,0,0.9,0.4,1,0.9V4v4c0,0.5-0.4,0.9-0.9,1H8H5
	C4.4,9,4,8.6,4,8c0-0.5,0.4-0.9,0.9-1H5h2V4C7,3.4,7.4,3,8,3z"/>
<path class="st1" d="M9.9,15V8.9c0-0.4,0.4-0.6,0.8-0.4l5.1,3.1c0.3,0.2,0.3,0.7,0,0.9l-5.1,3.1C10.3,15.7,9.9,15.4,9.9,15z"/>
</svg>
