<?xml version="1.0" encoding="utf-8"?>
<!-- Generator: Adobe Illustrator 25.0.1, SVG Export Plug-In . SVG Version: 6.00 Build 0)  -->
<svg version="1.1" id="Layer_1" xmlns="http://www.w3.org/2000/svg" xmlns:xlink="http://www.w3.org/1999/xlink" x="0px" y="0px"
	 viewBox="0 0 1920 842" style="enable-background:new 0 0 1920 842;" xml:space="preserve">
<style type="text/css">
	.st0{fill:#161616;}
	.st1{fill:#FFFFFF;}
	.st2{fill:#00D5ED;}
	.st3{stroke:#000000;stroke-width:7;stroke-miterlimit:10;}
	.st4{fill:none;}
	.st5{fill:#1C2C54;}
	.st6{fill:#4BC3B5;stroke:#4BC3B5;stroke-width:6;stroke-miterlimit:10;}
	.st7{fill:#4BC3B5;stroke:#4BC3B5;stroke-width:6.2726;stroke-miterlimit:10;}
	.st8{fill:#4BC3B5;stroke:#4BC3B5;stroke-miterlimit:10;}
	.st9{fill:#4BC3B5;}
	.st10{fill:#FFFFFF;stroke:#161616;stroke-width:10.0275;stroke-miterlimit:10;}
	.st11{fill:#002166;}
	.st12{fill:#0070D7;}
</style>
<g id="BG">
	<rect x="-2243.2" y="-1092.7" class="st0" width="2000" height="2000"/>
	<rect x="-4525.9" y="1270" class="st1" width="2000" height="2000"/>
	<rect x="-4525.9" y="-1092.7" class="st0" width="2000" height="2000"/>
	<path class="st1" d="M-536.7,4200.6v-141.4h-1554.4v1554.3h141.4l-0.3,141.4h1554.7V4200.6H-536.7z"/>
</g>
<g id="Layer_1_1_">
	<rect x="-8776.6" y="-1012.1" class="st2" width="216.4" height="53.8"/>
	<polygon class="st2" points="-8541.1,-876.3 -8541.1,-1011.9 -8487.4,-1011.9 -8487.4,-814.3 	"/>
	<rect x="-8469.5" y="-940.1" class="st2" width="53.8" height="125.8"/>
	<rect x="-8397.9" y="-940.1" class="st2" width="53.8" height="125.8"/>
	<polygon class="st2" points="-8326.3,-814.3 -8326.3,-1011.9 -8272.5,-1011.9 -8272.5,-876.3 	"/>
	<rect x="-8776.6" y="-940.1" class="st2" width="72.9" height="72.9"/>
	<rect x="-8633.1" y="-940.1" class="st2" width="72.9" height="72.9"/>
	<rect x="-8686.9" y="-940.1" class="st2" width="126.7" height="54.4"/>
	<rect x="-8776.6" y="-868.1" class="st2" width="216.4" height="53.8"/>
	<path d="M-7907.8-889.4V-1007c0-7.2,5.8-13.1,13.1-13.1h27.6c7.2,0,13.1,5.8,13.1,13.1v149.5c0,12.1-15,17.7-22.9,8.6l-27.6-31.9
		C-7906.7-883.2-7907.8-886.3-7907.8-889.4z"/>
	<path d="M-7836.2-835.6v-99.6c0-7.2,5.8-13.1,13.1-13.1h27.6c7.2,0,13.1,5.8,13.1,13.1v99.6c0,7.2-5.8,13.1-13.1,13.1h-27.6
		C-7830.4-822.6-7836.2-828.4-7836.2-835.6z"/>
	<path d="M-7764.6-835.6v-99.6c0-7.2,5.8-13.1,13.1-13.1h27.6c7.2,0,13.1,5.8,13.1,13.1v99.6c0,7.2-5.9,13.1-13.1,13.1h-27.6
		C-7758.7-822.6-7764.6-828.4-7764.6-835.6z"/>
	<path d="M-7693-857.6V-1007c0-7.2,5.8-13.1,13.1-13.1h27.6c7.2,0,13.1,5.8,13.1,13.1v117.6c0,3.1-1.1,6.2-3.2,8.6l-27.6,31.9
		C-7678-839.9-7693-845.5-7693-857.6z"/>
	<g>
		<path d="M-8143.3-1011.6v36.2c0,4.8,3.9,8.8,8.8,8.8h198.9c4.8,0,8.8-3.9,8.8-8.8v-36.2c0-4.8-3.9-8.8-8.8-8.8h-198.9
			C-8139.4-1020.3-8143.3-1016.4-8143.3-1011.6z"/>
		<path d="M-8053.5-939.6v36.9c0,4.8,3.9,8.8,8.8,8.8h36.2c4.8,0,8.8,3.9,8.8,8.8l0,0c0,4.8-3.9,8.8-8.8,8.8h-53.1
			c-4.8,0-8.8-3.9-8.8-8.8v-54.4c0-4.8-3.9-8.8-8.8-8.8h-55.3c-4.8,0-8.8,3.9-8.8,8.8v63.2v0.9v44.1c0,4.8,3.9,8.8,8.8,8.8h198.9
			c4.8,0,8.8-3.9,8.8-8.8v-44.1v-0.9v-17.6v-45.7c0-4.8-3.9-8.8-8.8-8.8h-64.1h-45C-8049.6-948.3-8053.5-944.4-8053.5-939.6z"/>
	</g>
	<polygon points="-8767.4,-364.3 -8767.4,-557.3 -8713.6,-557.3 -8713.6,-302.3 	"/>
	<rect x="-8695.8" y="-428.1" width="53.8" height="125.8"/>
	<rect x="-8624.2" y="-428.1" width="53.8" height="125.8"/>
	<polygon points="-8552.6,-302.3 -8552.6,-557.3 -8498.8,-557.3 -8498.8,-364.3 	"/>
	<g>
		<rect x="-8695.9" y="-557.3" width="125.7" height="31.2"/>
		<polygon points="-8643.8,-515.5 -8643.8,-483.9 -8612.6,-483.9 -8612.6,-473.7 -8653.6,-473.7 -8653.6,-515.5 -8695.9,-515.5 
			-8695.9,-473.7 -8695.9,-473.2 -8695.9,-442.5 -8570.3,-442.5 -8570.3,-473.2 -8570.3,-473.7 -8570.3,-483.9 -8570.3,-515.5 
			-8612.6,-515.5 		"/>
	</g>
	<g>
		<path class="st1" d="M-7910.7-597.8v8.8v8.8h8.8v35h8.8v8.8h8.8v8.8h8.8v8.8v8.8h-8.8v8.8h-8.8v8.8h-8.8v35h-8.8v8.8v8.8h96.4
			v-8.8v-8.8h-8.8v-35h-8.8v-8.8h-8.8v-8.8h-8.8v-8.8v-8.8h8.8v-8.8h8.8v-8.8h8.8v-35h8.8v-8.8v-8.8H-7910.7z"/>
		<g>
			<rect x="-7875.7" y="-527.8" width="8.8" height="8.8"/>
			<rect x="-7875.7" y="-519" width="8.8" height="8.8"/>
			<rect x="-7884.4" y="-510.2" width="8.8" height="8.8"/>
			<rect x="-7893.2" y="-501.5" width="8.8" height="8.8"/>
			<rect x="-7884.4" y="-536.5" width="8.8" height="8.8"/>
			<rect x="-7893.2" y="-545.3" width="8.8" height="8.8"/>
			<rect x="-7902" y="-580.3" width="8.8" height="35"/>
			<polygon points="-7910.7,-597.8 -7910.7,-589.1 -7910.7,-580.3 -7814.4,-580.3 -7814.4,-589.1 -7814.4,-597.8 			"/>
			<rect x="-7858.2" y="-527.8" class="st3" width="8.8" height="8.8"/>
			<rect x="-7858.2" y="-519" class="st3" width="8.8" height="8.8"/>
			<rect x="-7849.4" y="-510.2" class="st3" width="8.8" height="8.8"/>
			<rect x="-7840.6" y="-501.5" class="st3" width="8.8" height="8.8"/>
			<rect x="-7849.4" y="-536.5" class="st3" width="8.8" height="8.8"/>
			<rect x="-7866.9" y="-545.3" width="8.8" height="8.8"/>
			<rect x="-7875.7" y="-554" width="8.8" height="8.8"/>
			<rect x="-7858.2" y="-554" width="8.8" height="8.8"/>
			<rect x="-7840.6" y="-545.3" class="st3" width="8.8" height="8.8"/>
			<rect x="-7831.9" y="-580.3" class="st3" width="8.8" height="35"/>
			<rect x="-7902" y="-492.7" width="8.8" height="35"/>
			<polygon points="-7907.5,-457.7 -7907.5,-448.9 -7907.5,-440.2 -7814.4,-440.2 -7814.4,-448.9 -7814.4,-457.7 			"/>
			<polygon points="-7849.4,-475.2 -7849.4,-484 -7858.2,-484 -7858.2,-492.7 -7866.9,-492.7 -7866.9,-484 -7875.7,-484 
				-7875.7,-475.2 -7884.4,-475.2 -7884.4,-466.4 -7840.6,-466.4 -7840.6,-475.2 			"/>
			<rect x="-7831.9" y="-492.7" class="st3" width="8.8" height="35"/>
		</g>
	</g>
	<g>
		<path class="st1" d="M-7549.4-597.8v8.8v8.8h8.8v35h8.8v8.8h8.8v8.8h8.8v8.8v8.8h-8.8v8.8h-8.8v8.8h-8.8v35h-8.8v8.8v8.8h96.4
			v-8.8v-8.8h-8.8v-35h-8.8v-8.8h-8.8v-8.8h-8.8v-8.8v-8.8h8.8v-8.8h8.8v-8.8h8.8v-35h8.8v-8.8v-8.8H-7549.4z"/>
		<g>
			<rect x="-7514.4" y="-527.8" width="8.8" height="8.8"/>
			<rect x="-7514.4" y="-519" width="8.8" height="8.8"/>
			<rect x="-7523.1" y="-510.2" width="8.8" height="8.8"/>
			<rect x="-7531.9" y="-501.5" width="8.8" height="8.8"/>
			<rect x="-7523.1" y="-536.5" width="8.8" height="8.8"/>
			<rect x="-7531.9" y="-545.3" width="8.8" height="8.8"/>
			<rect x="-7540.6" y="-580.3" width="8.8" height="35"/>
			<polygon points="-7549.4,-597.8 -7549.4,-589.1 -7549.4,-580.3 -7453,-580.3 -7453,-589.1 -7453,-597.8 			"/>
			<rect x="-7496.8" y="-527.8" class="st3" width="8.8" height="8.8"/>
			<rect x="-7496.8" y="-519" class="st3" width="8.8" height="8.8"/>
			<rect x="-7488.1" y="-510.2" class="st3" width="8.8" height="8.8"/>
			<rect x="-7479.3" y="-501.5" class="st3" width="8.8" height="8.8"/>
			<rect x="-7488.1" y="-536.5" class="st3" width="8.8" height="8.8"/>
			<rect x="-7505.6" y="-545.3" width="8.8" height="8.8"/>
			<rect x="-7514.4" y="-554" width="8.8" height="8.8"/>
			<rect x="-7496.8" y="-554" width="8.8" height="8.8"/>
			<rect x="-7479.3" y="-545.3" class="st3" width="8.8" height="8.8"/>
			<rect x="-7470.6" y="-580.3" class="st3" width="8.8" height="35"/>
			<rect x="-7540.6" y="-492.7" width="8.8" height="35"/>
			<polygon points="-7546.1,-457.7 -7546.1,-448.9 -7546.1,-440.2 -7453,-440.2 -7453,-448.9 -7453,-457.7 			"/>
			<polygon points="-7488.1,-475.2 -7488.1,-484 -7496.8,-484 -7496.8,-492.7 -7505.6,-492.7 -7505.6,-484 -7514.4,-484 
				-7514.4,-475.2 -7523.1,-475.2 -7523.1,-466.4 -7479.3,-466.4 -7479.3,-475.2 			"/>
			<rect x="-7470.6" y="-492.7" class="st3" width="8.8" height="35"/>
		</g>
	</g>
	<g>
		<path d="M-7967.2-440.2v-28.1v-14.2h9.3h18.1v18.1h33.2v-48.5h-12.1v12.1h-36.4v-12.1h-12.1V-525v-12.1v-12.1v-12.1v-12.1v-12.1
			h12.1v-12.1h12.1h12.1h12.1v12.1h12.1v-12.1h12.1h12.1v12.1v12.1v12.1v12.1v12.1v82.7h-15.2l-0.1,14.3h-69.4V-440.2z
			 M-7930.8-525.1h12.1v-12.1h12.1v-12.1v-12.1h-12.1v-12.1h-12.1h-12.1v12.1v12.1v12.1v12.1H-7930.8z"/>
	</g>
	<g>
		<path d="M-7561.1-440.2h-14.6h-14.6h-14.6h-14.6v-14.3h-14.6v-14.3v-14.3v-14.3v-14.3V-526v-14.3v-14.3v-14.3v-14.3h14.6v-14.3
			h14.6h14.6h14.6h14.6h14.6v14.3h14.6v14.3v14.3h-14.6h-14.6v-14.3h-14.6h-14.6h-14.6v14.3v14.3v14.3v14.3v14.3v14.3v14.3h14.6
			h14.6h14.6v-14.3v-14.3h-14.6v-14.3V-526h14.6h14.6h14.6v14.3v14.3v14.3v14.3v14.3h-14.3v14.3H-7561.1z"/>
	</g>
	<rect x="-7635.9" y="-427.2" class="st4" width="184.7" height="74.1"/>
	<text transform="matrix(1 0 0 1 -7633.4995 -402.397)" style="font-family:'Pixellari'; font-size:36px;">GameWatch</text>
	<g>
		<path class="st1" d="M-7170.3-597.8v8.8v8.8h8.8v35h8.8v8.8h8.8v8.8h8.8v8.8v8.8h-8.8v8.8h-8.8v8.8h-8.8v35h-8.8v8.8v8.8h96.4
			v-8.8v-8.8h-8.8v-35h-8.8v-8.8h-8.8v-8.8h-8.8v-8.8v-8.8h8.8v-8.8h8.8v-8.8h8.8v-35h8.8v-8.8v-8.8H-7170.3z"/>
		<g>
			<rect x="-7135.2" y="-527.8" width="8.8" height="8.8"/>
			<rect x="-7135.2" y="-519" width="8.8" height="8.8"/>
			<rect x="-7144" y="-510.2" width="8.8" height="8.8"/>
			<rect x="-7152.8" y="-501.5" width="8.8" height="8.8"/>
			<rect x="-7144" y="-536.5" width="8.8" height="8.8"/>
			<rect x="-7152.8" y="-545.3" width="8.8" height="8.8"/>
			<rect x="-7161.5" y="-580.3" width="8.8" height="35"/>
			<polygon points="-7170.3,-597.8 -7170.3,-589.1 -7170.3,-580.3 -7073.9,-580.3 -7073.9,-589.1 -7073.9,-597.8 			"/>
			<rect x="-7117.7" y="-527.8" width="8.8" height="8.8"/>
			<rect x="-7117.7" y="-519" width="8.8" height="8.8"/>
			<rect x="-7109" y="-510.2" width="8.8" height="8.8"/>
			<rect x="-7100.2" y="-501.5" width="8.8" height="8.8"/>
			<rect x="-7109" y="-536.5" width="8.8" height="8.8"/>
			<rect x="-7126.5" y="-545.3" width="8.8" height="8.8"/>
			<rect x="-7135.2" y="-554" width="8.8" height="8.8"/>
			<rect x="-7117.7" y="-554" width="8.8" height="8.8"/>
			<rect x="-7100.2" y="-545.3" width="8.8" height="8.8"/>
			<rect x="-7091.4" y="-580.3" width="8.8" height="35"/>
			<rect x="-7161.5" y="-492.7" width="8.8" height="35"/>
			<polygon points="-7167,-457.7 -7167,-448.9 -7167,-440.2 -7073.9,-440.2 -7073.9,-448.9 -7073.9,-457.7 			"/>
			<polygon points="-7109,-475.2 -7109,-484 -7117.7,-484 -7117.7,-492.7 -7126.5,-492.7 -7126.5,-484 -7135.2,-484 -7135.2,-475.2 
				-7144,-475.2 -7144,-466.4 -7100.2,-466.4 -7100.2,-475.2 			"/>
			<rect x="-7091.4" y="-492.7" width="8.8" height="35"/>
		</g>
	</g>
	<g>
		<path d="M-7182-440.2h-14.6h-14.6h-14.6h-14.6v-14.3h-14.6v-14.3v-14.3v-14.3v-14.3V-526v-14.3v-14.3v-14.3v-14.3h14.6v-14.3h14.6
			h14.6h14.6h14.6h14.6v14.3h14.6v14.3v14.3h-14.6h-14.6v-14.3h-14.6h-14.6h-14.6v14.3v14.3v14.3v14.3v14.3v14.3v14.3h14.6h14.6
			h14.6v-14.3v-14.3h-14.6v-14.3V-526h14.6h14.6h14.6v14.3v14.3v14.3v14.3v14.3h-14.3v14.3H-7182z"/>
	</g>
	<rect x="-7268.6" y="-427.2" class="st4" width="208.4" height="164.8"/>
	<text transform="matrix(1 0 0 1 -7255.8262 -374.1689)" style="font-family:'Pixellari'; font-size:77px;">Game</text>
	<text transform="matrix(1 0 0 1 -7265.4263 -315.1689)" style="font-family:'Pixellari'; font-size:77px;">Watch</text>
	<g>
		<g>
			<path class="st5" d="M-7412.7,87.8h-15.2h-15.2h-15.2h-15.2V72.9h-15.2V58V43.1V28.2V13.3V-1.6v-14.9v-14.9v-14.9v-14.9h15.2
				v-14.9h15.2h15.2h15.2h15.2h15.2v14.9h15.2v14.9v14.9h-15.2h-15.2v-14.9h-15.2h-15.2h-15.2v14.9v14.9v14.9v14.9v14.9v14.9V58
				h15.2h15.2h15.2V43.1V28.2h-15.2V13.3V-1.6h15.2h15.2h15.2v14.9v14.9v14.9V58v14.9h-12.2v14.9H-7412.7z"/>
		</g>
	</g>
	<g>
		<g>
			<rect x="-7359.8" y="-2.8" class="st6" width="8.8" height="8.8"/>
			<rect x="-7359.8" y="6" class="st6" width="8.8" height="8.8"/>
			<rect x="-7368.6" y="14.8" class="st6" width="8.8" height="8.8"/>
			<rect x="-7377.3" y="23.5" class="st6" width="8.8" height="8.8"/>
			<rect x="-7368.6" y="-11.5" class="st6" width="8.8" height="8.8"/>
			<rect x="-7377.3" y="-20.3" class="st6" width="8.8" height="8.8"/>
			<rect x="-7386.1" y="-55.3" class="st6" width="8.8" height="35"/>
			<polygon class="st7" points="-7394.8,-72.8 -7394.8,-64.1 -7394.8,-55.3 -7289.5,-55.3 -7289.5,-64.1 -7289.5,-72.8 			"/>
			<rect x="-7338.3" y="-5.8" class="st8" width="8.8" height="8.8"/>
			<rect x="-7338.3" y="3" class="st8" width="8.8" height="8.8"/>
			<rect x="-7329.5" y="11.8" class="st8" width="8.8" height="8.8"/>
			<rect x="-7320.8" y="20.5" class="st8" width="8.8" height="8.8"/>
			<rect x="-7329.5" y="-14.5" class="st8" width="8.8" height="8.8"/>
			<rect x="-7347" y="-23.3" class="st8" width="8.8" height="8.8"/>
			<rect x="-7355.8" y="-32" class="st8" width="8.8" height="8.8"/>
			<rect x="-7338.3" y="-32" class="st8" width="8.8" height="8.8"/>
			<rect x="-7320.8" y="-23.3" class="st8" width="8.8" height="8.8"/>
			<rect x="-7312" y="-58.3" class="st8" width="8.8" height="35"/>
			<rect x="-7386.1" y="32.3" class="st6" width="8.8" height="35"/>
			<polygon class="st7" points="-7391.3,67.3 -7391.3,76.1 -7391.3,84.8 -7289.5,84.8 -7289.5,76.1 -7289.5,67.3 			"/>
			<polygon class="st8" points="-7329.5,46.8 -7329.5,38 -7338.3,38 -7338.3,29.3 -7347,29.3 -7347,38 -7355.8,38 -7355.8,46.8 
				-7364.6,46.8 -7364.6,55.6 -7320.8,55.6 -7320.8,46.8 			"/>
			<rect x="-7312" y="29.3" class="st8" width="8.8" height="35"/>
		</g>
	</g>
	<rect x="-7492.1" y="94.8" class="st4" width="208.4" height="164.8"/>
	<text transform="matrix(1 0 0 1 -7479.2803 147.8447)" class="st5" style="font-family:'Pixellari'; font-size:77px;">Game</text>
	<text transform="matrix(1 0 0 1 -7488.8804 206.8447)" class="st5" style="font-family:'Pixellari'; font-size:77px;">Watch</text>
	<g>
		<g>
			<g>
				<path class="st5" d="M-5891.3,2116.9h-49.5h-49.5h-49.5h-49.5v-47.7h-49.5v-47.7v-47.7v-47.7v-47.7v-47.7V1783v-47.7v-47.7
					v-47.7h49.5v-47.3l247.4,0.1v47.2h49.5v47.7v47.7h-49.5h-49.5v-47.7h-49.5h-49.5h-49.5v47.7v47.7v47.7v47.7v47.7v47.7v47.7h49.5
					h49.5h49.5v-47.7v-47.7h-49.5v-47.7v-47.7h49.5h49.5h45.1v238.5h-35.3v47.7H-5891.3z"/>
			</g>
		</g>
		<g>
			<path class="st9" d="M-5848.5,1592.6v9.6v28.1v37.7h23.5v106.4h28.1v28.1h28.1v28.1h28.1v27.8h-28.1v28.1h-28.1v28.1h-28.1v127.1
				h-13.1v9.6v28.1v37.7h317.6v-37.7v-37.7h-23.5v-114h-28.1v-28.1h-28.1v-28.1h-28.1v-24.9v-3.2v-24.9h28.1v-28.1h28.1v-28.1h28.1
				V1668h23.5v-37.7v-37.7H-5848.5L-5848.5,1592.6z M-5768.6,1942.8h28.1v-14.2v-13.9h28.1v-14.2v-13.9h28.1v-14.2v-13.9v-14.2
				v-14.2V1802h-28.1v-28.1h-28.1v-28.1h-28.1V1668h193.4v91.4h-28.1v28.1h-28.1v28.1h-28.1v28.1v3.2v28.1h1.6h26.5v28.1h1.6h26.5
				v28.1h1.6h26.5v110.6h-193.4V1942.8z"/>
			<polygon class="st5" points="-5656.1,1748.6 -5628,1748.6 -5628,1717.3 -5659.3,1717.3 -5659.3,1745.4 -5684.1,1745.4 
				-5684.1,1717.3 -5715.4,1717.3 -5715.4,1748.6 -5713.8,1748.6 -5687.4,1748.6 -5687.4,1776.6 -5685.8,1776.6 -5656.1,1776.6 			
				"/>
			<polygon class="st5" points="-5628,1983.8 -5628,1955.8 -5656.1,1955.8 -5656.1,1927.7 -5687.4,1927.7 -5687.4,1955.8 
				-5715.4,1955.8 -5715.4,1983.8 -5743.5,1983.8 -5743.5,2015.1 -5600,2015.1 -5600,1983.8 			"/>
		</g>
		<rect x="-6150.4" y="2139.3" class="st4" width="667.6" height="372.6"/>
		<text transform="matrix(1 0 0 1 -6109.3701 2309.0688)" class="st5" style="font-family:'Pixellari'; font-size:246.6285px;">Game</text>
		<text transform="matrix(1 0 0 1 -6140.1699 2498.0688)" class="st5" style="font-family:'Pixellari'; font-size:246.6285px;">Watch</text>
	</g>
	<g>
		<g>
			<g>
				<path class="st5" d="M-1370.5,5446.9h-101.9h-101.9h-102h-101.9v-98.3h-101.9v-98.3V5152v-98.3v-98.3v-98.3v-98.3v-98.3v-98.3
					v-98.3h101.9V4367l509.6,0.1v97.3h101.9v98.3v98.3h-101.9h-101.9v-98.3h-101.9h-101.9h-102v98.3v98.3v98.3v98.3v98.3v98.3v98.3
					h101.9h101.9h101.9v-98.3v-98.3h-101.8v-98.3v-98.3h101.9h101.9h92.9v491.3h-72.8v98.3h-122V5446.9z"/>
			</g>
		</g>
		<g>
			<path class="st9" d="M-1282.1,4367.1v19.8v57.8v77.6h48.4v219.3h57.8v57.8h57.8v57.8h57.8v57.3h-57.8v57.8h-57.8v57.8h-57.8
				v261.8h-26.9v19.8v57.8v77.6h654.3v-77.6v-77.6h-48.4v-234.5h-57.8v-57.8h-57.8v-57.8h-57.8v-51.2v-6.6v-51.2h57.8V4775h57.8
				v-57.8h57.8v-194.9h48.4v-77.6v-77.6H-1282.1z M-1117.6,5088.3h57.8v-29.2v-28.6h57.8v-29.2v-28.6h57.8v-29.2v-28.6v-29.2v-29.2
				v-57.8h-57.8V4741h-57.8v-57.8h-57.8v-160.9h398.5v188.3h-57.8v57.8h-57.8v57.8h-57.8v57.8v6.6v57.8h3.3h54.5v57.8h3.3h54.5v57.8
				h3.3h54.5v227.9h-398.5V5088.3z"/>
			<polygon class="st5" points="-885.9,4688.2 -828.1,4688.2 -828.1,4623.9 -892.5,4623.9 -892.5,4681.6 -943.7,4681.6 
				-943.7,4623.9 -1008.1,4623.9 -1008.1,4688.2 -1004.8,4688.2 -950.3,4688.2 -950.3,4746 -947,4746 -885.9,4746 			"/>
			<polygon class="st5" points="-828.1,5172.9 -828.1,5115.1 -885.9,5115.1 -885.9,5057.3 -950.3,5057.3 -950.3,5115.1 
				-1008.1,5115.1 -1008.1,5172.9 -1065.9,5172.9 -1065.9,5237.3 -770.3,5237.3 -770.3,5172.9 			"/>
		</g>
	</g>
	<g>
		<g>
			<g>
				<path class="st5" d="M-1404.1,2409.2h-106.4h-106.4h-106.5h-106.4v-102.6h-106.4V2204v-102.5v-102.6v-102.6v-102.6v-102.6
					v-102.6V1486v-102.6h106.4v-101.7l532.1,0.1v101.6h106.4V1486v102.6h-106.4h-106.4V1486h-106.4h-106.4h-106.5v102.6v102.6v102.6
					v102.6V1999v102.6V2204h106.4h106.4h106.4v-102.5v-102.6h-106.3v-102.6v-102.6h106.4h106.4h97v512.9h-76v102.6L-1404.1,2409.2
					L-1404.1,2409.2z"/>
			</g>
		</g>
		<g>
			<path class="st9" d="M-1311.9,1281.7v20.7v60.3v81h50.6v228.9h60.3v60.4h60.3v60.3h60.3v59.8h-60.3v60.3h-60.3v60.3h-60.3v273.4
				h-28.1v20.7v60.3v81h683.2v-81v-81h-50.6v-244.7h-60.3v-60.3h-60.3v-60.3h-60.3v-53.5v-6.9v-53.5h60.3v-60.3h60.3v-60.3h60.3
				v-203.5h50.6v-81v-81h-705.7V1281.7z M-1140,2034.8h60.3v-30.5v-29.9h60.3V1944v-29.9h60.3v-30.5v-29.9v-30.5v-30.5v-60.3h-60.3
				v-60.3h-60.3v-60.3h-60.3v-168h416.1v196.6h-60.3v60.3h-60.3v60.3h-60.3v60.3v6.9v60.3h3.4h56.9v60.5h3.4h56.9v60.3h3.4h56.9
				v237.9H-1140V2034.8z"/>
			<polygon class="st5" points="-898.1,1617.1 -837.8,1617.1 -837.8,1549.8 -905,1549.8 -905,1610.2 -958.5,1610.2 -958.5,1549.8 
				-1025.7,1549.8 -1025.7,1617.1 -1022.2,1617.1 -965.3,1617.1 -965.3,1677.4 -961.9,1677.4 -898.1,1677.4 			"/>
			<polygon class="st5" points="-837.8,2123.1 -837.8,2062.8 -898.1,2062.8 -898.1,2002.4 -965.3,2002.4 -965.3,2062.8 
				-1025.7,2062.8 -1025.7,2123.1 -1086,2123.1 -1086,2190.3 -777.4,2190.3 -777.4,2123.1 			"/>
		</g>
		<g>
			<path class="st5" d="M-1641,2822.6h-33.2h-33.2h-33.2h-33.2v-33.2h-33.2v-33.2V2723v-33v-33.2v-33.2v-33.2v-33.2V2524v-33.2h33.2
				V2458h33.2h33.2h33.2h33.2h33.2v33.2h33.2v33.2v33.2h-33.2h-33.2v-33.2h-33.2h-33.2h-33.2v33.2v33.2v33.2v33.2v33.2v33.2v33.2
				h33.2h33.2h33.2v-33.2V2690h-33.2v-33.2v-33.2h33.2h33.2h33.2v33.2v33.2v33.2v33.2v33.2h-33.2v33.2h-33.2V2822.6z"/>
			<path class="st5" d="M-1342.7,2822.6h-33.2h-33.2h-33.2h-33.2v-33.2h-33.2v-33.2V2723v-33v-33.2v-33.2v-33.2h33.2v-33.2h33.2
				h33.2h33.2h33.2v33.2h33.2v33.2v33.2v33.2v33.2v33.2v33.2v33.2h-33.2V2822.6z M-1409,2756.3h33.2v-33.2V2690v-33.2v-33.2h-33.2
				h-33.2v33.2v33.2v33.2v33.2L-1409,2756.3L-1409,2756.3z"/>
			<path class="st5" d="M-944.8,2822.6H-978v-33.2v-33.2V2723v-33v-33.2v-33.2h-33.2h-33.2v33.2v33.2v33.2v33.2v33.2v33.2h-33.2
				h-33.2v-33.2v-33.2v-33.2V2690v-33.2v-33.2h-33.2h-33.2v33.2v33.2v33.2v33.2v33.2v33.2h-33.2h-32.8v-33.2v-33.2v-33.2V2690v-33.2
				v-33.2v-33.2v-33.2h33.2h33.2h33.2h33.2h33.2h33.2h33.2h33.2h33.2v33.2h33.2v33.2v33.2v33.2v33.2v33.2v33.2v33.2h-33.6V2822.6z"
				/>
			<path class="st5" d="M-712.7,2822.6h-33.2h-33.2h-33.1v-33.2h-33.2v-33.2V2723v-33v-33.2v-33.2v-33.2h33.2v-33.2h33.2h33.2h33.2
				h33.2v33.2h33.2v33.2v33.2v33.2h-33.2h-33.2h-33.2H-779v33.2v33.2h33.2h33.2v-33.2h33.2h33.2v33.2v33.2h-33.2v33.2h-33.3V2822.6z
				 M-745.9,2656.9h33.2v-33.2h-33.2h-33.2v33.2H-745.9z"/>
			<path class="st5" d="M-1674.2,3229.1h-33.2v-33.2h-33.2h-33.2v33.2h-33.2h-33.2v-33.2h-32.9v-33.2h-33.2v-33.2v-33.2v-33.2v-33.2
				V2997v-33.2v-33.2v-33.2v-33.2h33.2h33.2v33.2v33.2v33.2v33.2v33.2v33.2v33.2v33.2h33.2h33.2v-33.2v-33.2v-33.2V2997v-33.2h33.2
				h33.2v33.2v33.2v33.2v33.2v33.2h32.9h33.2v-33.2v-33.2v-33.2V2997v-33.2v-33.2v-33.2v-33.2h33.2h33.2v33.2v33.2v33.2v33.2v33.2
				v33.2v33.2v33.2v33.2h-33.2v33.2h-33.2v33.2h-33.2V3229.1z"/>
			<path class="st5" d="M-1342.7,3229.1h-33.2h-33.2h-33.2h-33.2v-33.2h-33.2v-33.2v-33.2v-33.2v-33.2v-33.2V2997h33.2v-33.2h33.2
				h33.2h33.2h33.2v33.2h33.2v33.2v33.2v33.2v33.2v33.2v33.2v33.2h-33.2V3229.1z M-1409,3162.8h33.2v-33.2v-33.2v-33.2V3030h-33.2
				h-33.2v33.2v33.2v33.2v33.2H-1409z"/>
			<path class="st5" d="M-1176.9,3229.1h-33.2v-33.2h-33.1v-33.2v-33.2v-33.2v-33.2v-33.2h-33.2V2997v-33.2h33.2v-33.2v-33.2v-33.2
				h33.2h33.2v33.2v33.2v33.2h33.2v33.2v33.2h-33.2v33.2v33.2v33.2v33.2h33.2v33.2v33.2h-33.3V3229.1z"/>
			<path class="st5" d="M-944.8,3229.1H-978h-33.2h-33.2v-33.2h-33.2v-33.2v-33.2v-33.2v-33.2v-33.2V2997h33.2v-33.2h33.2h33.2h33.2
				h33.2v33.2h33.2v33.2v33.2h-33.2h-33.2v-33.2H-978h-33.2v33.2v33.2v33.2v33.2h33.2h33.2v-33.2h33.2h33.2v33.2v33.2h-33.2v33.2
				h-33.2V3229.1z"/>
			<path class="st5" d="M-613.3,3229.1h-33.2v-33.2v-33.2v-33.2v-33.2v-33.2v-33.2h-33.2h-33.2v33.2h-33.2v33.2v33.2v33.2v33.2v33.2
				h-33.2h-32.9v-33.2v-33.2v-33.2v-33.2v-33.2v-33.2V2997v-33.2v-33.2v-33.2v-33.2h33.2h33.2v33.2v33.2v33.2v33.2h33.2v-33.2h33.2
				h33.2h33.2v33.2h33.2v33.2v33.2v33.2v33.2v33.2v33.2v33.2h-33.5V3229.1z"/>
		</g>
	</g>
	<g>
		<g>
			<g>
				<path class="st5" d="M-5922.2-3.4h-68.1h-68.1h-68.1h-68.1v-65.7h-68.1v-65.7v-65.7v-65.7v-65.7v-65.7v-65.7V-529v-65.7v-65.7
					h68.1v-65.1l340.7,0.1v65.1h68.1v65.7v65.7h-68.1h-68.1v-65.7h-68.1h-68.1h-68.1v65.7v65.7v65.7v65.7v65.7v65.7v65.7h68.1h68.1
					h68.1v-65.7v-65.7h-68.1v-65.7v-65.7h68.1h68.1h62.1v328.4h-48.7v65.7L-5922.2-3.4L-5922.2-3.4z"/>
			</g>
		</g>
		<g>
			<path class="st9" d="M-5863.2-725.4v13.2v38.6v51.9h32.4v146.6h38.6v38.6h38.6v38.6h38.6v38.3h-38.6v38.6h-38.6v38.6h-38.6v175.1
				h-18v13.2v38.6v51.9h437.5v-51.9v-51.9h-32.4v-156.8h-38.6v-38.6h-38.6v-38.6h-38.6v-34.2v-4.4v-34.2h38.6v-38.6h38.6v-38.6h38.6
				v-130.3h32.4v-51.9v-51.9h-451.9V-725.4z M-5753.1-243.2h38.6v-19.5v-19.1h38.6v-19.5v-19.1h38.6v-19.5V-359v-19.5V-398v-38.6
				h-38.6v-38.6h-38.6v-38.6h-38.6v-107.6h266.4v125.9h-38.6v38.6h-38.6v38.6h-38.6v38.6v4.4v38.6h2.2h36.4v38.6h2.2h36.4v38.6h2.2
				h36.4v152.4h-266.4L-5753.1-243.2L-5753.1-243.2z"/>
			<polygon class="st5" points="-5598.2,-510.7 -5559.6,-510.7 -5559.6,-553.7 -5602.6,-553.7 -5602.6,-515.1 -5636.9,-515.1 
				-5636.9,-553.7 -5679.9,-553.7 -5679.9,-510.7 -5677.7,-510.7 -5641.3,-510.7 -5641.3,-472 -5639.1,-472 -5598.2,-472 			"/>
			<polygon class="st5" points="-5559.6,-186.6 -5559.6,-225.3 -5598.2,-225.3 -5598.2,-263.9 -5641.3,-263.9 -5641.3,-225.3 
				-5679.9,-225.3 -5679.9,-186.6 -5718.6,-186.6 -5718.6,-143.6 -5520.9,-143.6 -5520.9,-186.6 			"/>
		</g>
		<rect x="-6279" y="27.5" class="st4" width="919.5" height="513.2"/>
		<text transform="matrix(1 0 0 1 -6222.5342 261.3149)" class="st5" style="font-family:'Pixellari'; font-size:339.678px;">Game</text>
		<text transform="matrix(1 0 0 1 -6265.0342 521.6147)" class="st5" style="font-family:'Pixellari'; font-size:339.678px;">Watch</text>
	</g>
	<g>
		<g>
			<g>
				<path class="st9" d="M-3885.8,4829.2v308.5h160v308.5h-480.1V4366.4h480.1v154.3h144.3v-147.3h-76v-314l-708.4-0.2v153h-160
					v1388.3h160v154.3h742.1v-314h42.3v-411.1h90.7V4939h70.9v-109.7L-3885.8,4829.2L-3885.8,4829.2z"/>
			</g>
		</g>
		<g>
			<path class="st9" d="M-3587,4059.3v31.1v90.7v121.8h76v344.2h90.7v90.7h90.7v90.7h90.7v89.9h-90.7v90.7h-90.7v90.7h-90.7v411.1
				h-42.3v31.1v90.7v121.8h1027.4V5633v-121.8h-76V5143h-90.7v-90.7h-90.7v-90.7h-90.7v-80.4v-10.4v-80.4h90.7v-90.7h90.7V4609h90.7
				v-306h76v-121.8v-121.8H-3587V4059.3z M-3328.6,5191.6h90.7v-45.8v-44.9h90.7v-45.8v-44.9h90.7v-45.8v-44.9v-45.8v-45.8v-90.7
				h-90.7v-90.7h-90.7v-90.7h-90.7v-252.7h625.7v295.6h-90.7v90.7h-90.7v90.7h-90.7v90.7v10.4v90.7h5.2h85.6v90.7h5.2h85.6v90.7h5.2
				h85.6v357.8h-625.7v-319.5H-3328.6z"/>
			<polygon class="st9" points="-2964.8,4563.6 -2874.1,4563.6 -2874.1,4462.5 -2975.2,4462.5 -2975.2,4553.2 -3055.6,4553.2 
				-3055.6,4462.5 -3156.7,4462.5 -3156.7,4563.6 -3151.5,4563.6 -3065.9,4563.6 -3065.9,4654.3 -3060.8,4654.3 -2964.8,4654.3 			
				"/>
			<polygon class="st9" points="-2874.1,5324.5 -2874.1,5233.7 -2964.8,5233.7 -2964.8,5143 -3065.9,5143 -3065.9,5233.7 
				-3156.7,5233.7 -3156.7,5324.5 -3247.4,5324.5 -3247.4,5425.6 -2783.4,5425.6 -2783.4,5324.5 			"/>
		</g>
	</g>
	<g>
		<g>
			<g>
				<path class="st1" d="M-1414.4-397.8v131.4h68.2V-135h-204.5v-459.8h204.5v65.7h61.5v-62.7h-32.5v-133.7l-301.7-0.1v65.1h-68.1
					v591.2h68.1v65.7h316v-133.7h18v-175.1h38.6V-351h30.2v-46.7h-198.3V-397.8z"/>
			</g>
		</g>
		<g>
			<path class="st1" d="M-1287.2-725.7v13.2v38.6v51.9h32.4v146.6h38.6v38.6h38.6v38.6h38.6v38.3h-38.6v38.6h-38.6v38.6h-38.6v175.1
				h-18v13.2v38.6v51.9h437.5v-51.9v-51.9h-32.4v-156.8h-38.6v-38.6h-38.6v-38.6h-38.6v-34.2v-4.4v-34.2h38.6v-38.6h38.6v-38.6h38.6
				V-622h32.4v-51.9v-51.9h-451.9V-725.7z M-1177.1-243.5h38.6V-263v-19.1h38.6v-19.5v-19.1h38.7v-19.5v-19.1v-19.5v-19.5v-38.6
				h-38.6v-38.6h-38.6v-38.6h-38.6v-107.6h266.4v125.9h-38.6v38.6h-38.6v38.6h-38.6v38.6v4.4v38.6h2.2h36.4v38.6h2.2h36.4v38.6h2.2
				h36.4v152.4h-266.5V-243.5z"/>
			<polygon class="st1" points="-1022.2,-510.9 -983.6,-510.9 -983.6,-554 -1026.6,-554 -1026.6,-515.4 -1060.9,-515.4 
				-1060.9,-554 -1103.9,-554 -1103.9,-510.9 -1101.7,-510.9 -1065.3,-510.9 -1065.3,-472.3 -1063.1,-472.3 -1022.2,-472.3 			"/>
			<polygon class="st1" points="-983.6,-186.9 -983.6,-225.5 -1022.2,-225.5 -1022.2,-264.2 -1065.3,-264.2 -1065.3,-225.5 
				-1103.9,-225.5 -1103.9,-186.9 -1142.6,-186.9 -1142.6,-143.9 -944.9,-143.9 -944.9,-186.9 			"/>
		</g>
		<rect x="-1703" y="27.2" class="st4" width="919.5" height="513.2"/>
		<text transform="matrix(1 0 0 1 -1646.5333 261.0378)" class="st1" style="font-family:'Pixellari'; font-size:339.678px;">Game</text>
		<text transform="matrix(1 0 0 1 -1689.0333 521.3379)" class="st1" style="font-family:'Pixellari'; font-size:339.678px;">Watch</text>
	</g>
	<g>
		<rect x="-5817.5" y="2772.2" class="st5" width="500.5" height="500.5"/>
		<g>
			<g>
				<g>
					<path class="st9" d="M-5625.8,3012.1v46.3h24v46.3h-72.1v-162.1h72.1v23.2h21.7v-22.1h-11.4v-47.1h-106.3v23h-24V3128h24v23.2
						h111.4v-47.1h6.3v-61.7h13.6v-13.6h10.6v-16.5h-69.9V3012.1z"/>
				</g>
			</g>
			<g>
				<path class="st9" d="M-5580.9,2896.6v4.7v13.6v18.3h11.4v51.7h13.6v13.6h13.6v13.6h13.6v13.5h-13.6v13.6h-13.6v13.6h-13.6v61.7
					h-6.3v4.7v13.6v18.3h154.2v-18.3v-18.3h-11.4v-55.3h-13.6v-13.6h-13.6V3032h-13.6v-12.1v-1.6v-12.1h13.6v-13.6h13.6V2979h13.6
					v-45.9h11.4v-18.3v-18.3h-159.3V2896.6z M-5542.2,3066.6h13.6v-6.9v-6.7h13.6v-6.9v-6.7h13.6v-6.9v-6.7v-6.9v-6.9v-13.6h-13.6
					v-13.6h-13.6v-13.6h-13.6v-37.9h93.9v44.4h-13.6v13.6h-13.6v13.6h-13.6v13.6v1.6v13.6h0.8h12.8v13.6h0.8h12.8v13.6h0.8h12.8
					v53.7h-93.9V3066.6z"/>
				<polygon class="st9" points="-5487.6,2972.3 -5473.9,2972.3 -5473.9,2957.1 -5489.1,2957.1 -5489.1,2970.7 -5501.2,2970.7 
					-5501.2,2957.1 -5516.4,2957.1 -5516.4,2972.3 -5515.6,2972.3 -5502.7,2972.3 -5502.7,2985.9 -5502,2985.9 -5487.6,2985.9 				
					"/>
				<polygon class="st9" points="-5473.9,3086.5 -5473.9,3072.9 -5487.6,3072.9 -5487.6,3059.3 -5502.7,3059.3 -5502.7,3072.9 
					-5516.4,3072.9 -5516.4,3086.5 -5530,3086.5 -5530,3101.7 -5460.3,3101.7 -5460.3,3086.5 				"/>
			</g>
		</g>
	</g>
	<g>
		<rect x="-5317" y="2772.2" class="st9" width="500.5" height="500.5"/>
		<g>
			<g>
				<g>
					<path class="st5" d="M-5125.3,3012.1v46.3h24v46.3h-72.1v-162.1h72.1v23.2h21.7v-22.1h-11.4v-47.1h-106.3v23h-24V3128h24v23.2
						h111.4v-47.1h6.3v-61.7h13.6v-13.6h10.6v-16.5h-69.9V3012.1z"/>
				</g>
			</g>
			<g>
				<path class="st5" d="M-5080.4,2896.6v4.7v13.6v18.3h11.4v51.7h13.6v13.6h13.6v13.6h13.6v13.5h-13.6v13.6h-13.6v13.6h-13.6v61.7
					h-6.3v4.7v13.6v18.3h154.2v-18.3v-18.3h-11.4v-55.3h-13.6v-13.6h-13.6V3032h-13.6v-12.1v-1.6v-12.1h13.6v-13.6h13.6V2979h13.6
					v-45.9h11.4v-18.3v-18.3h-159.3V2896.6z M-5041.7,3066.6h13.6v-6.9v-6.7h13.6v-6.9v-6.7h13.6v-6.9v-6.7v-6.9v-6.9v-13.6h-13.6
					v-13.6h-13.6v-13.6h-13.6v-37.9h93.9v44.4h-13.6v13.6h-13.6v13.6h-13.6v13.6v1.6v13.6h0.8h12.8v13.6h0.8h12.8v13.6h0.8h12.8
					v53.7h-93.9V3066.6z"/>
				<polygon class="st5" points="-4987.1,2972.3 -4973.4,2972.3 -4973.4,2957.1 -4988.6,2957.1 -4988.6,2970.7 -5000.7,2970.7 
					-5000.7,2957.1 -5015.9,2957.1 -5015.9,2972.3 -5015.1,2972.3 -5002.2,2972.3 -5002.2,2985.9 -5001.5,2985.9 -4987.1,2985.9 
									"/>
				<polygon class="st5" points="-4973.4,3086.5 -4973.4,3072.9 -4987.1,3072.9 -4987.1,3059.3 -5002.2,3059.3 -5002.2,3072.9 
					-5015.9,3072.9 -5015.9,3086.5 -5029.5,3086.5 -5029.5,3101.7 -4959.8,3101.7 -4959.8,3086.5 				"/>
			</g>
		</g>
	</g>
	<g>
		<g>
			<g>
				<path class="st0" d="M-3697.1,1964.8v131.4h68.1v131.4h-204.4v-459.8h204.4v65.7h61.5v-62.7h-32.4V1637l-301.7-0.1v65.1h-68.1
					v591.2h68.1v65.7h316v-133.7h18v-175h38.6v-38.6h30.2v-46.7L-3697.1,1964.8L-3697.1,1964.8z"/>
			</g>
		</g>
		<g>
			<path class="st0" d="M-3569.8,1637v13.2v38.6v51.9h32.4v146.6h38.6v38.7h38.6v38.6h38.6v38.3h-38.6v38.6h-38.6v38.6h-38.6v175.1
				h-18v13.2v38.6v51.9h437.5V2307v-51.9h-32.4v-156.6h-38.6v-38.6h-38.6v-38.6h-38.6V1987v-4.4v-34.2h38.6v-38.6h38.6V1871h38.6
				v-130.2h32.4v-51.9V1637H-3569.8z M-3459.8,2119.2h38.6v-19.5v-19.1h38.6V2061v-19.1h38.6v-19.5v-19.1v-19.5v-19.5v-38.6h-38.6
				V1887h-38.6v-38.6h-38.6v-107.6h266.4v125.9h-38.6v38.6h-38.6v38.6h-38.6v38.6v4.4v38.6h2.2h36.4v38.6h2.2h36.4v38.6h2.2h36.4
				v152.4h-266.4V2119.2z"/>
			<polygon class="st0" points="-3304.9,1851.7 -3266.3,1851.7 -3266.3,1808.7 -3309.3,1808.7 -3309.3,1847.3 -3343.5,1847.3 
				-3343.5,1808.7 -3386.6,1808.7 -3386.6,1851.7 -3384.4,1851.7 -3347.9,1851.7 -3347.9,1890.4 -3345.7,1890.4 -3304.9,1890.4 			
				"/>
			<polygon class="st0" points="-3266.3,2175.8 -3266.3,2137.1 -3304.9,2137.1 -3304.9,2098.5 -3347.9,2098.5 -3347.9,2137.1 
				-3386.6,2137.1 -3386.6,2175.8 -3425.2,2175.8 -3425.2,2218.8 -3227.6,2218.8 -3227.6,2175.8 			"/>
		</g>
		<rect x="-3985.6" y="2389.8" class="st4" width="919.5" height="513.2"/>
		<text transform="matrix(1 0 0 1 -3929.2012 2623.7041)" class="st0" style="font-family:'Pixellari'; font-size:339.678px;">Game</text>
		<text transform="matrix(1 0 0 1 -3971.7012 2884.0042)" class="st0" style="font-family:'Pixellari'; font-size:339.678px;">Watch</text>
	</g>
	<g>
		<rect x="-6811.6" y="2777.2" class="st10" width="490.5" height="490.5"/>
		<g>
			<g>
				<g>
					<path class="st0" d="M-6624.7,3013.5v46.3h24v46.3h-72.1V2944h72.1v23.2h21.7v-22.1h-11.4V2898h-106.3v23h-24v208.4h24v23.2
						h111.4v-47.1h6.3v-61.7h13.6V3030h10.6v-16.5H-6624.7z"/>
				</g>
			</g>
			<g>
				<path class="st0" d="M-6579.9,2898v4.7v13.6v18.3h11.4v51.7h13.6v13.6h13.6v13.6h13.6v13.5h-13.6v13.6h-13.6v13.6h-13.6v61.7
					h-6.3v4.7v13.6v18.3h154.2v-18.3v-18.3h-11.4v-55.3h-13.6V3047h-13.6v-13.6h-13.6v-12.1v-1.6v-12.1h13.6V2994h13.6v-13.6h13.6
					v-45.9h11.4v-18.3V2898H-6579.9z M-6541.1,3067.9h13.6v-6.9v-6.7h13.6v-6.9v-6.7h13.6v-6.9v-6.7v-6.9v-6.9v-13.6h-13.6v-13.6
					h-13.6v-13.6h-13.6v-37.9h93.9v44.4h-13.6v13.6h-13.6v13.6h-13.6v13.6v1.6v13.6h0.8h12.8v13.6h0.8h12.8v13.6h0.8h12.8v53.7
					h-93.9L-6541.1,3067.9L-6541.1,3067.9z"/>
				<polygon class="st0" points="-6486.5,2973.6 -6472.9,2973.6 -6472.9,2958.5 -6488.1,2958.5 -6488.1,2972.1 -6500.1,2972.1 
					-6500.1,2958.5 -6515.3,2958.5 -6515.3,2973.6 -6514.5,2973.6 -6501.7,2973.6 -6501.7,2987.3 -6500.9,2987.3 -6486.5,2987.3 
									"/>
				<polygon class="st0" points="-6472.9,3087.9 -6472.9,3074.3 -6486.5,3074.3 -6486.5,3060.6 -6501.7,3060.6 -6501.7,3074.3 
					-6515.3,3074.3 -6515.3,3087.9 -6528.9,3087.9 -6528.9,3103 -6459.3,3103 -6459.3,3087.9 				"/>
			</g>
		</g>
	</g>
	<g>
		<g>
			<g>
				<path class="st9" d="M-3697.1-397.8v131.4h68.1V-135h-204.4v-459.8h204.4v65.7h61.5v-62.7h-32.4v-133.7l-301.7-0.1v65.1h-68.1
					v591.2h68.1v65.7h316v-133.7h18v-175.1h38.6V-351h30.2v-46.7h-198.3V-397.8z"/>
			</g>
		</g>
		<g>
			<path class="st9" d="M-3569.8-725.7v13.2v38.6v51.9h32.4v146.6h38.6v38.6h38.6v38.6h38.6v38.3h-38.6v38.6h-38.6v38.6h-38.6v175.1
				h-18v13.2v38.6v51.9h437.5v-51.9v-51.9h-32.4v-156.8h-38.6v-38.6h-38.6v-38.6h-38.6v-34.2v-4.4v-34.2h38.6v-38.6h38.6v-38.6h38.6
				V-622h32.4v-51.9v-51.9h-451.9V-725.7z M-3459.8-243.5h38.6V-263v-19.1h38.6v-19.5v-19.1h38.6v-19.5v-19.1v-19.5v-19.5v-38.6
				h-38.6v-38.6h-38.6v-38.6h-38.6v-107.6h266.4v125.9h-38.6v38.6h-38.6v38.6h-38.6v38.6v4.4v38.6h2.2h36.4v38.6h2.2h36.4v38.6h2.2
				h36.4v152.4h-266.4V-243.5z"/>
			<polygon class="st9" points="-3304.9,-510.9 -3266.3,-510.9 -3266.3,-554 -3309.3,-554 -3309.3,-515.4 -3343.5,-515.4 
				-3343.5,-554 -3386.6,-554 -3386.6,-510.9 -3384.4,-510.9 -3347.9,-510.9 -3347.9,-472.3 -3345.7,-472.3 -3304.9,-472.3 			"/>
			<polygon class="st9" points="-3266.3,-186.9 -3266.3,-225.5 -3304.9,-225.5 -3304.9,-264.2 -3347.9,-264.2 -3347.9,-225.5 
				-3386.6,-225.5 -3386.6,-186.9 -3425.2,-186.9 -3425.2,-143.9 -3227.6,-143.9 -3227.6,-186.9 			"/>
		</g>
		<rect x="-3985.6" y="27.2" class="st4" width="919.5" height="513.2"/>
		<text transform="matrix(1 0 0 1 -3929.2002 261.0376)" class="st9" style="font-family:'Pixellari'; font-size:339.678px;">Game</text>
		<text transform="matrix(1 0 0 1 -3971.7002 521.3374)" class="st9" style="font-family:'Pixellari'; font-size:339.678px;">Watch</text>
	</g>
	<g>
		<rect x="-6318.1" y="2772.2" class="st0" width="500.5" height="500.5"/>
		<g>
			<g>
				<g>
					<path class="st9" d="M-6126.3,3012.1v46.3h24v46.3h-72.1v-162.1h72.1v23.2h21.7v-22.1h-11.4v-47.1h-106.3v23h-24V3128h24v23.2
						h111.4v-47.1h6.3v-61.7h13.6v-13.6h10.6v-16.5h-69.9V3012.1z"/>
				</g>
			</g>
			<g>
				<path class="st9" d="M-6081.5,2896.6v4.7v13.6v18.3h11.4v51.7h13.6v13.6h13.6v13.6h13.6v13.5h-13.6v13.6h-13.6v13.6h-13.6v61.7
					h-6.3v4.7v13.6v18.3h154.2v-18.3v-18.3h-11.4v-55.3h-13.6v-13.6h-13.6V3032h-13.6v-12.1v-1.6v-12.1h13.6v-13.6h13.6V2979h13.6
					v-45.9h11.4v-18.3v-18.3h-159.3V2896.6z M-6042.7,3066.6h13.6v-6.9v-6.7h13.6v-6.9v-6.7h13.6v-6.9v-6.7v-6.9v-6.9v-13.6h-13.6
					v-13.6h-13.6v-13.6h-13.6v-37.9h93.9v44.4h-13.6v13.6h-13.6v13.6h-13.6v13.6v1.6v13.6h0.8h12.8v13.6h0.8h12.8v13.6h0.8h12.8
					v53.7h-93.9V3066.6z"/>
				<polygon class="st9" points="-5988.1,2972.3 -5974.5,2972.3 -5974.5,2957.1 -5989.6,2957.1 -5989.6,2970.7 -6001.7,2970.7 
					-6001.7,2957.1 -6016.9,2957.1 -6016.9,2972.3 -6016.1,2972.3 -6003.2,2972.3 -6003.2,2985.9 -6002.5,2985.9 -5988.1,2985.9 
									"/>
				<polygon class="st9" points="-5974.5,3086.5 -5974.5,3072.9 -5988.1,3072.9 -5988.1,3059.3 -6003.2,3059.3 -6003.2,3072.9 
					-6016.9,3072.9 -6016.9,3086.5 -6030.5,3086.5 -6030.5,3101.7 -5960.8,3101.7 -5960.8,3086.5 				"/>
			</g>
		</g>
	</g>
	<g>
		<g>
			<g>
				<path class="st9" d="M-8539.2,191.6v39.8h20.6v39.8h-61.9V131.9h61.9v19.9h18.6v-19h-9.8V92.3h-91.4V112h-20.6v179.1h20.6V311
					h95.7v-40.5h5.5v-53h11.7v-11.7h9.1v-14.2L-8539.2,191.6L-8539.2,191.6z"/>
			</g>
		</g>
		<g>
			<path class="st9" d="M-8500.7,92.3v4V108v15.7h9.8v44.4h11.7v11.7h11.7v11.7h11.7v11.6h-11.7v11.7h-11.7v11.7h-11.7v53h-5.5v4
				v11.7v15.7h132.5v-15.7v-15.7h-9.8V232h-11.7v-11.7h-11.7v-11.7h-11.7v-10.4v-1.3v-10.4h11.7v-11.7h11.7v-11.7h11.7v-39.5h9.8
				v-15.7V92.2h-136.8V92.3z M-8467.4,238.4h11.7v-5.9v-5.8h11.7v-5.9V215h11.7v-5.9v-5.8v-5.9v-5.9v-11.7h-11.7v-11.7h-11.7v-11.7
				h-11.7v-32.6h80.7v38.1h-11.7v11.7h-11.7v11.7h-11.7V197v1.3V210h0.7h11v11.7h0.7h11v11.7h0.7h11v46.2h-80.7V238.4z"/>
			<polygon class="st9" points="-8420.4,157.3 -8408.7,157.3 -8408.7,144.3 -8421.8,144.3 -8421.8,156 -8432.1,156 -8432.1,144.3 
				-8445.2,144.3 -8445.2,157.3 -8444.5,157.3 -8433.5,157.3 -8433.5,169.1 -8432.8,169.1 -8420.4,169.1 			"/>
			<polygon class="st9" points="-8408.7,255.5 -8408.7,243.8 -8420.4,243.8 -8420.4,232.1 -8433.5,232.1 -8433.5,243.8 
				-8445.2,243.8 -8445.2,255.5 -8456.9,255.5 -8456.9,268.6 -8397,268.6 -8397,255.5 			"/>
		</g>
		<rect x="-8626.6" y="320.4" class="st4" width="278.6" height="155.5"/>
		<text transform="matrix(1 0 0 1 -8609.5283 391.209)" class="st9" style="font-family:'Pixellari'; font-size:102.9006px;">Game</text>
		<text transform="matrix(1 0 0 1 -8622.4277 470.009)" class="st9" style="font-family:'Pixellari'; font-size:102.9006px;">Watch</text>
	</g>
	<g>
		<rect x="-7798.3" y="-5.8" class="st11" width="8.8" height="8.8"/>
		<rect x="-7798.3" y="3" class="st11" width="8.8" height="8.8"/>
		<rect x="-7807.1" y="11.8" class="st11" width="8.8" height="8.8"/>
		<rect x="-7815.9" y="20.5" class="st11" width="8.8" height="8.8"/>
		<rect x="-7807.1" y="-14.5" class="st11" width="8.8" height="8.8"/>
		<rect x="-7815.9" y="-23.3" class="st11" width="8.8" height="8.8"/>
		<rect x="-7824.6" y="-58.3" class="st11" width="8.8" height="35"/>
		<polygon class="st11" points="-7833.4,-75.8 -7833.4,-67.1 -7833.4,-58.3 -7737,-58.3 -7737,-67.1 -7737,-75.8 		"/>
		<rect x="-7780.8" y="-5.8" class="st11" width="8.8" height="8.8"/>
		<polygon class="st11" points="-7780.8,3 -7780.8,6.5 -7768.6,6.5 -7768.6,-9.3 -7784.3,-9.3 -7784.3,6.5 -7780.8,6.5 -7780.8,3 
			-7777.3,3 -7777.3,-2.3 -7775.6,-2.3 -7775.6,-0.5 -7780.8,-0.5 -7780.8,3 -7777.3,3 		"/>
		<rect x="-7780.8" y="3" class="st11" width="8.8" height="8.8"/>
		<polygon class="st11" points="-7780.8,11.8 -7780.8,15.3 -7768.6,15.3 -7768.6,-0.5 -7784.3,-0.5 -7784.3,15.3 -7780.8,15.3 
			-7780.8,11.8 -7777.3,11.8 -7777.3,6.5 -7775.6,6.5 -7775.6,8.3 -7780.8,8.3 -7780.8,11.8 -7777.3,11.8 		"/>
		<rect x="-7772.1" y="11.8" class="st11" width="8.8" height="8.8"/>
		<polygon class="st11" points="-7772.1,20.5 -7772.1,24 -7759.8,24 -7759.8,8.3 -7775.6,8.3 -7775.6,24 -7772.1,24 -7772.1,20.5 
			-7768.6,20.5 -7768.6,15.3 -7766.8,15.3 -7766.8,17 -7772.1,17 -7772.1,20.5 -7768.6,20.5 		"/>
		<rect x="-7763.3" y="20.5" class="st11" width="8.8" height="8.8"/>
		<polygon class="st11" points="-7763.3,29.3 -7763.3,32.8 -7751,32.8 -7751,17 -7766.8,17 -7766.8,32.8 -7763.3,32.8 -7763.3,29.3 
			-7759.8,29.3 -7759.8,24 -7758,24 -7758,25.8 -7763.3,25.8 -7763.3,29.3 -7759.8,29.3 		"/>
		<rect x="-7772.1" y="-14.5" class="st11" width="8.8" height="8.8"/>
		<polygon class="st11" points="-7772.1,-5.8 -7772.1,-2.3 -7759.8,-2.3 -7759.8,-18 -7775.6,-18 -7775.6,-2.3 -7772.1,-2.3 
			-7772.1,-5.8 -7768.6,-5.8 -7768.6,-11 -7766.8,-11 -7766.8,-9.3 -7772.1,-9.3 -7772.1,-5.8 -7768.6,-5.8 		"/>
		<rect x="-7789.6" y="-23.3" class="st11" width="8.8" height="8.8"/>
		<rect x="-7798.3" y="-32" class="st11" width="8.8" height="8.8"/>
		<rect x="-7780.8" y="-32" class="st11" width="8.8" height="8.8"/>
		<rect x="-7763.3" y="-23.3" class="st11" width="8.8" height="8.8"/>
		<polygon class="st11" points="-7763.3,-14.5 -7763.3,-11 -7751,-11 -7751,-26.8 -7766.8,-26.8 -7766.8,-11 -7763.3,-11 
			-7763.3,-14.5 -7759.8,-14.5 -7759.8,-19.8 -7758,-19.8 -7758,-18 -7763.3,-18 -7763.3,-14.5 -7759.8,-14.5 		"/>
		<rect x="-7754.5" y="-58.3" class="st11" width="8.8" height="35"/>
		<polygon class="st11" points="-7754.5,-23.3 -7754.5,-19.8 -7742.3,-19.8 -7742.3,-61.8 -7758,-61.8 -7758,-19.8 -7754.5,-19.8 
			-7754.5,-23.3 -7751,-23.3 -7751,-54.8 -7749.3,-54.8 -7749.3,-26.8 -7754.5,-26.8 -7754.5,-23.3 -7751,-23.3 		"/>
		<rect x="-7824.6" y="29.3" class="st11" width="8.8" height="35"/>
		<polygon class="st11" points="-7830.1,64.3 -7830.1,73.1 -7830.1,81.8 -7737,81.8 -7737,73.1 -7737,64.3 		"/>
		<polygon class="st11" points="-7772.1,46.8 -7772.1,38 -7780.8,38 -7780.8,29.3 -7789.6,29.3 -7789.6,38 -7798.3,38 -7798.3,46.8 
			-7807.1,46.8 -7807.1,55.6 -7763.3,55.6 -7763.3,46.8 		"/>
		<rect x="-7754.5" y="29.3" class="st11" width="8.8" height="35"/>
		<polygon class="st11" points="-7754.5,29.3 -7754.5,32.8 -7749.3,32.8 -7749.3,60.8 -7751,60.8 -7751,29.3 -7754.5,29.3 
			-7754.5,32.8 -7754.5,29.3 -7758,29.3 -7758,67.8 -7742.3,67.8 -7742.3,25.8 -7758,25.8 -7758,29.3 		"/>
	</g>
	<g>
		<path class="st12" d="M-7845.1,81.8h-14.6h-14.6h-14.6h-14.6V67.5h-14.6V53.2V38.9V24.6V10.3V-4v-14.3v-14.3v-14.3v-14.3h14.6
			v-14.3h14.6h14.6h14.6h14.6h14.6v14.3h14.6v14.3v14.3h-14.6h-14.6v-14.3h-14.6h-14.6h-14.6v14.3v14.3V-4v14.3v14.3v14.3v14.3h14.6
			h14.6h14.6V38.9V24.6h-14.6V10.3V-4h14.6h14.6h14.6v14.3v14.3v14.3v14.3v14.3h-14.3v14.3H-7845.1z"/>
	</g>
	<rect x="-7931.7" y="94.8" class="st4" width="208.4" height="164.8"/>
	<text transform="matrix(1 0 0 1 -7918.9126 147.8311)" class="st11" style="font-family:'Pixellari'; font-size:77px;">Game</text>
	<text transform="matrix(1 0 0 1 -7928.5127 206.8311)" class="st11" style="font-family:'Pixellari'; font-size:77px;">Watch</text>
</g>
<g id="Background">
	<rect x="-12084.4" y="1747" class="st9" width="3846.3" height="1080"/>
	<rect x="-12084.4" y="2827" class="st5" width="3846.4" height="1080"/>
	<g>
		<rect x="-12084.4" y="2825" class="st9" width="88.4" height="116.7"/>
		<rect x="-11881.3" y="2825" class="st9" width="107.1" height="116.7"/>
		<rect x="-11659.5" y="2825" class="st9" width="107.1" height="116.7"/>
		<rect x="-11437.7" y="2825" class="st9" width="107.1" height="116.7"/>
		<rect x="-11215.9" y="2825" class="st9" width="107.1" height="116.7"/>
		<rect x="-10994.2" y="2825" class="st9" width="107.1" height="116.7"/>
		<rect x="-10772.4" y="2825" class="st9" width="107.1" height="116.7"/>
		<rect x="-10550.6" y="2825" class="st9" width="107.1" height="116.7"/>
		<rect x="-9885.3" y="2825" class="st9" width="107.1" height="116.7"/>
		<rect x="-9663.5" y="2825" class="st9" width="107.1" height="116.7"/>
		<rect x="-9441.7" y="2825" class="st9" width="107.1" height="116.7"/>
		<rect x="-9219.9" y="2825" class="st9" width="107.1" height="116.7"/>
		<rect x="-8998.2" y="2825" class="st9" width="107.1" height="116.7"/>
		<rect x="-8776.4" y="2825" class="st9" width="107.1" height="116.7"/>
		<rect x="-8554.6" y="2825" class="st9" width="107.1" height="116.7"/>
		<rect x="-8332.8" y="2825" class="st9" width="88.4" height="116.7"/>
	</g>
	<g>
		<g>
			<g>
				<path class="st1" d="M-10251.4,2817.8v66.8h34.6v66.8h-103.9v-233.7h103.9v33.4h31.2v-31.9h-16.5v-68h-153.3v33.1h-34.6v300.4
					h34.6v33.4h160.6v-68h9.1v-89h19.6v-19.6h15.3v-23.7L-10251.4,2817.8L-10251.4,2817.8z"/>
			</g>
		</g>
		<g>
			<path class="st1" d="M-10186.7,2651.2v6.7v19.6v26.4h16.5v74.5h19.6v19.6h19.6v19.6h19.6v19.5h-19.6v19.6h-19.6v19.6h-19.6v89
				h-9.1v6.7v19.6v26.4h222.3v-26.4v-26.4h-16.5v-79.7h-19.6v-19.6h-19.6v-19.6h-19.6V2829v-2.2v-17.4h19.6v-19.6h19.6v-19.6h19.6
				V2704h16.5v-26.4v-26.4L-10186.7,2651.2L-10186.7,2651.2z M-10130.8,2896.2h19.6v-9.9v-9.7h19.6v-9.9v-9.7h19.6v-9.9v-9.7v-9.9
				v-9.9V2798h-19.6v-19.6h-19.6v-19.6h-19.6v-54.7h135.4v64h-19.6v19.6h-19.6v19.6h-19.6v19.6v2.2v19.6h1.1h18.5v19.6h1.1h18.5
				v19.6h1.1h18.5v77.4h-135.4V2896.2z"/>
			<polygon class="st1" points="-10052.1,2760.3 -10032.4,2760.3 -10032.4,2738.4 -10054.3,2738.4 -10054.3,2758.1 -10071.7,2758.1 
				-10071.7,2738.4 -10093.6,2738.4 -10093.6,2760.3 -10092.5,2760.3 -10074,2760.3 -10074,2779.9 -10072.8,2779.9 -10052.1,2779.9 
							"/>
			<polygon class="st1" points="-10032.4,2925 -10032.4,2905.3 -10052.1,2905.3 -10052.1,2885.7 -10074,2885.7 -10074,2905.3 
				-10093.6,2905.3 -10093.6,2925 -10113.2,2925 -10113.2,2946.9 -10012.8,2946.9 -10012.8,2925 			"/>
		</g>
		<rect x="-10398" y="3033.8" class="st4" width="467.3" height="260.8"/>
		<text transform="matrix(1 0 0 1 -10369.3359 3152.6304)" class="st1" style="font-family:'Pixellari'; font-size:172.6233px;">Game</text>
		<text transform="matrix(1 0 0 1 -10390.9355 3284.9302)" class="st1" style="font-family:'Pixellari'; font-size:172.6233px;">Watch</text>
	</g>
	<g>
		<g>
			<g>
				<path class="st1" d="M-10183.1,3783.4v16h8.3v16h-25v-56.2h25v8h7.5v-7.7h-4v-16.3h-36.8v8h-8.3v72.2h8.3v8h38.6v-16.3h2.2
					v-21.4h4.7v-4.7h3.7v-5.7L-10183.1,3783.4L-10183.1,3783.4z"/>
			</g>
		</g>
		<g>
			<path class="st1" d="M-10167.6,3743.3v1.6v4.7v6.3h4v17.9h4.7v4.7h4.7v4.7h4.7v4.7h-4.7v4.7h-4.7v4.7h-4.7v21.4h-2.2v1.6v4.7v6.3
				h53.4v-6.3v-6.3h-4v-19.1h-4.7v-4.7h-4.7v-4.7h-4.7v-4.2v-0.5v-4.2h4.7v-4.7h4.7v-4.7h4.7V3756h4v-6.3v-6.3L-10167.6,3743.3
				L-10167.6,3743.3z M-10154.1,3802.2h4.7v-2.4v-2.3h4.7v-2.4v-2.3h4.7v-2.4v-2.3v-2.4v-2.4v-4.7h-4.7v-4.7h-4.7v-4.7h-4.7V3756
				h32.5v15.4h-4.7v4.7h-4.7v4.7h-4.7v4.7v0.5v4.7h0.3h4.4v4.7h0.3h4.4v4.7h0.3h4.4v18.6h-32.5L-10154.1,3802.2L-10154.1,3802.2z"/>
			<polygon class="st1" points="-10135.2,3769.5 -10130.5,3769.5 -10130.5,3764.3 -10135.8,3764.3 -10135.8,3769 -10139.9,3769 
				-10139.9,3764.3 -10145.2,3764.3 -10145.2,3769.5 -10144.9,3769.5 -10140.5,3769.5 -10140.5,3774.3 -10140.2,3774.3 
				-10135.2,3774.3 			"/>
			<polygon class="st1" points="-10130.5,3809.1 -10130.5,3804.4 -10135.2,3804.4 -10135.2,3799.7 -10140.5,3799.7 -10140.5,3804.4 
				-10145.2,3804.4 -10145.2,3809.1 -10149.9,3809.1 -10149.9,3814.4 -10125.8,3814.4 -10125.8,3809.1 			"/>
		</g>
	</g>
</g>
<g id="Layer_2_1_">
</g>
<polygon class="st9" points="0,78.8 207.8,78.8 207.8,130.4 353.8,130.4 353.8,186.8 483.8,186.8 483.8,100.8 641.8,100.8 
	641.8,149.2 737.8,149.2 737.8,222.8 883.8,222.8 883.8,130.1 1055.8,130.1 1055.8,62.8 1249.8,62.8 1249.8,116.8 1359.8,116.8 
	1359.8,156.8 1513.8,156.8 1513.8,78.8 1673.8,78.8 1673.8,204.8 1767.8,204.8 1767.8,142.8 1807.8,142.8 1807.8,26.8 1865.8,26.8 
	1865.8,0 1920,0 1920,842 0,842 "/>
</svg>
