<?xml version="1.0" encoding="utf-8"?>
<!-- Generator: Adobe Illustrator 25.0.1, SVG Export Plug-In . SVG Version: 6.00 Build 0)  -->
<svg version="1.1" xmlns="http://www.w3.org/2000/svg" xmlns:xlink="http://www.w3.org/1999/xlink" x="0px" y="0px"
	 viewBox="0 0 1436 2000" style="enable-background:new 0 0 1436 2000;" xml:space="preserve">
<style type="text/css">
	.st0{fill:#161616;}
	.st1{fill:#FFFFFF;}
	.st2{fill:#00D5ED;}
	.st3{stroke:#000000;stroke-width:7;stroke-miterlimit:10;}
	.st4{fill:#1C2C54;}
	.st5{fill:#4BC3B5;stroke:#4BC3B5;stroke-width:6;stroke-miterlimit:10;}
	.st6{fill:#4BC3B5;stroke:#4BC3B5;stroke-width:6.2726;stroke-miterlimit:10;}
	.st7{fill:#4BC3B5;stroke:#4BC3B5;stroke-miterlimit:10;}
	.st8{fill:#4BC3B5;}
	.st9{fill:#FFFFFF;stroke:#161616;stroke-width:10.0275;stroke-miterlimit:10;}
	.st10{fill:#002166;}
	.st11{fill:#0070D7;}
</style>
<g id="BG">
	<rect x="-282" y="-2362.7" class="st0" width="2000" height="2000"/>
	<rect x="-2564.7" class="st1" width="2000" height="2000"/>
	<rect x="-2564.7" y="-2362.7" class="st0" width="2000" height="2000"/>
	<path class="st1" d="M1424.5,2930.6v-141.4H-129.9v1554.3H11.5l-0.3,141.4h1554.7V2930.6H1424.5z"/>
</g>
<g id="Layer_1">
	<rect x="-6815.4" y="-2282.1" class="st2" width="216.4" height="53.8"/>
	<polygon class="st2" points="-6579.9,-2146.3 -6579.9,-2281.9 -6526.2,-2281.9 -6526.2,-2084.3 	"/>
	
		<rect x="-6544.3" y="-2174.1" transform="matrix(-1.836970e-16 1 -1 -1.836970e-16 -8628.667 4334.2222)" class="st2" width="125.8" height="53.8"/>
	
		<rect x="-6472.7" y="-2174.1" transform="matrix(-1.836970e-16 1 -1 -1.836970e-16 -8557.0557 4262.6113)" class="st2" width="125.8" height="53.8"/>
	<polygon class="st2" points="-6365.1,-2084.3 -6365.1,-2281.9 -6311.3,-2281.9 -6311.3,-2146.3 	"/>
	<rect x="-6815.4" y="-2210.1" class="st2" width="72.9" height="72.9"/>
	<rect x="-6671.9" y="-2210.1" class="st2" width="72.9" height="72.9"/>
	<rect x="-6725.7" y="-2210.1" class="st2" width="126.7" height="54.4"/>
	<rect x="-6815.4" y="-2138.1" class="st2" width="216.4" height="53.8"/>
	<path d="M-5946.6-2159.4V-2277c0-7.2,5.8-13.1,13.1-13.1h27.6c7.2,0,13.1,5.8,13.1,13.1v149.5c0,12.1-15,17.7-22.9,8.6l-27.6-31.9
		C-5945.5-2153.2-5946.6-2156.3-5946.6-2159.4z"/>
	<path d="M-5875-2105.6v-99.6c0-7.2,5.8-13.1,13.1-13.1h27.6c7.2,0,13.1,5.8,13.1,13.1v99.6c0,7.2-5.8,13.1-13.1,13.1h-27.6
		C-5869.2-2092.6-5875-2098.4-5875-2105.6z"/>
	<path d="M-5803.4-2105.6v-99.6c0-7.2,5.8-13.1,13.1-13.1h27.6c7.2,0,13.1,5.8,13.1,13.1v99.6c0,7.2-5.9,13.1-13.1,13.1h-27.6
		C-5797.5-2092.6-5803.4-2098.4-5803.4-2105.6z"/>
	<path d="M-5731.8-2127.6V-2277c0-7.2,5.8-13.1,13.1-13.1h27.6c7.2,0,13.1,5.8,13.1,13.1v117.6c0,3.1-1.1,6.2-3.2,8.6l-27.6,31.9
		C-5716.8-2109.9-5731.8-2115.5-5731.8-2127.6z"/>
	<g>
		<path d="M-6182.1-2281.6v36.2c0,4.8,3.9,8.8,8.8,8.8h198.9c4.8,0,8.8-3.9,8.8-8.8v-36.2c0-4.8-3.9-8.8-8.8-8.8h-198.9
			C-6178.2-2290.3-6182.1-2286.4-6182.1-2281.6z"/>
		<path d="M-6092.3-2209.6v36.9c0,4.8,3.9,8.8,8.8,8.8h36.2c4.8,0,8.8,3.9,8.8,8.8l0,0c0,4.8-3.9,8.8-8.8,8.8h-53.1
			c-4.8,0-8.8-3.9-8.8-8.8v-54.4c0-4.8-3.9-8.8-8.8-8.8h-55.3c-4.8,0-8.8,3.9-8.8,8.8v63.2v0.9v44.1c0,4.8,3.9,8.8,8.8,8.8h198.9
			c4.8,0,8.8-3.9,8.8-8.8v-44.1v-0.9v-17.6v-45.7c0-4.8-3.9-8.8-8.8-8.8h-64.1h-45C-6088.4-2218.3-6092.3-2214.4-6092.3-2209.6z"/>
	</g>
	<polygon points="-6806.2,-1634.3 -6806.2,-1827.3 -6752.4,-1827.3 -6752.4,-1572.3 	"/>
	
		<rect x="-6770.6" y="-1662.1" transform="matrix(-1.836970e-16 1 -1 -1.836970e-16 -8342.917 5072.4722)" width="125.8" height="53.8"/>
	
		<rect x="-6699" y="-1662.1" transform="matrix(-1.836970e-16 1 -1 -1.836970e-16 -8271.3057 5000.8613)" width="125.8" height="53.8"/>
	<polygon points="-6591.4,-1572.3 -6591.4,-1827.3 -6537.6,-1827.3 -6537.6,-1634.3 	"/>
	<g>
		<rect x="-6734.7" y="-1827.3" width="125.7" height="31.2"/>
		<polygon points="-6682.6,-1785.5 -6682.6,-1753.9 -6651.4,-1753.9 -6651.4,-1743.7 -6692.4,-1743.7 -6692.4,-1785.5 
			-6734.7,-1785.5 -6734.7,-1743.7 -6734.7,-1743.2 -6734.7,-1712.5 -6609.1,-1712.5 -6609.1,-1743.2 -6609.1,-1743.7 
			-6609.1,-1753.9 -6609.1,-1785.5 -6651.4,-1785.5 		"/>
	</g>
	<g>
		<path class="st1" d="M-5949.5-1867.8v8.8v8.8h8.8v35h8.8v8.8h8.8v8.8h8.8v8.8v8.8h-8.8v8.8h-8.8v8.8h-8.8v35h-8.8v8.8v8.8h96.4
			v-8.8v-8.8h-8.8v-35h-8.8v-8.8h-8.8v-8.8h-8.8v-8.8v-8.8h8.8v-8.8h8.8v-8.8h8.8v-35h8.8v-8.8v-8.8H-5949.5z"/>
		<g>
			<rect x="-5914.5" y="-1797.8" width="8.8" height="8.8"/>
			<rect x="-5914.5" y="-1789" width="8.8" height="8.8"/>
			<rect x="-5923.2" y="-1780.2" width="8.8" height="8.8"/>
			<rect x="-5932" y="-1771.5" width="8.8" height="8.8"/>
			<rect x="-5923.2" y="-1806.5" width="8.8" height="8.8"/>
			<rect x="-5932" y="-1815.3" width="8.8" height="8.8"/>
			<rect x="-5940.8" y="-1850.3" width="8.8" height="35"/>
			<polygon points="-5949.5,-1867.8 -5949.5,-1859.1 -5949.5,-1850.3 -5853.2,-1850.3 -5853.2,-1859.1 -5853.2,-1867.8 			"/>
			<rect x="-5897" y="-1797.8" class="st3" width="8.8" height="8.8"/>
			<rect x="-5897" y="-1789" class="st3" width="8.8" height="8.8"/>
			<rect x="-5888.2" y="-1780.2" class="st3" width="8.8" height="8.8"/>
			<rect x="-5879.4" y="-1771.5" class="st3" width="8.8" height="8.8"/>
			<rect x="-5888.2" y="-1806.5" class="st3" width="8.8" height="8.8"/>
			<rect x="-5905.7" y="-1815.3" width="8.8" height="8.8"/>
			<rect x="-5914.5" y="-1824" width="8.8" height="8.8"/>
			<rect x="-5897" y="-1824" width="8.8" height="8.8"/>
			<rect x="-5879.4" y="-1815.3" class="st3" width="8.8" height="8.8"/>
			<rect x="-5870.7" y="-1850.3" class="st3" width="8.8" height="35"/>
			<rect x="-5940.8" y="-1762.7" width="8.8" height="35"/>
			<polygon points="-5946.3,-1727.7 -5946.3,-1718.9 -5946.3,-1710.2 -5853.2,-1710.2 -5853.2,-1718.9 -5853.2,-1727.7 			"/>
			<polygon points="-5888.2,-1745.2 -5888.2,-1754 -5897,-1754 -5897,-1762.7 -5905.7,-1762.7 -5905.7,-1754 -5914.5,-1754 
				-5914.5,-1745.2 -5923.2,-1745.2 -5923.2,-1736.4 -5879.4,-1736.4 -5879.4,-1745.2 			"/>
			<rect x="-5870.7" y="-1762.7" class="st3" width="8.8" height="35"/>
		</g>
	</g>
	<g>
		<path class="st1" d="M-5588.2-1867.8v8.8v8.8h8.8v35h8.8v8.8h8.8v8.8h8.8v8.8v8.8h-8.8v8.8h-8.8v8.8h-8.8v35h-8.8v8.8v8.8h96.4
			v-8.8v-8.8h-8.8v-35h-8.8v-8.8h-8.8v-8.8h-8.8l0-8.8v-8.8h8.8v-8.8h8.8v-8.8h8.8v-35h8.8v-8.8v-8.8H-5588.2z"/>
		<g>
			<rect x="-5553.2" y="-1797.8" width="8.8" height="8.8"/>
			<rect x="-5553.2" y="-1789" width="8.8" height="8.8"/>
			<rect x="-5561.9" y="-1780.2" width="8.8" height="8.8"/>
			<rect x="-5570.7" y="-1771.5" width="8.8" height="8.8"/>
			<rect x="-5561.9" y="-1806.5" width="8.8" height="8.8"/>
			<rect x="-5570.7" y="-1815.3" width="8.8" height="8.8"/>
			<rect x="-5579.4" y="-1850.3" width="8.8" height="35"/>
			<polygon points="-5588.2,-1867.8 -5588.2,-1859.1 -5588.2,-1850.3 -5491.8,-1850.3 -5491.8,-1859.1 -5491.8,-1867.8 			"/>
			<rect x="-5535.6" y="-1797.8" class="st3" width="8.8" height="8.8"/>
			<rect x="-5535.6" y="-1789" class="st3" width="8.8" height="8.8"/>
			<rect x="-5526.9" y="-1780.2" class="st3" width="8.8" height="8.8"/>
			<rect x="-5518.1" y="-1771.5" class="st3" width="8.8" height="8.8"/>
			<rect x="-5526.9" y="-1806.5" class="st3" width="8.8" height="8.8"/>
			<rect x="-5544.4" y="-1815.3" width="8.8" height="8.8"/>
			<rect x="-5553.2" y="-1824" width="8.8" height="8.8"/>
			<rect x="-5535.6" y="-1824" width="8.8" height="8.8"/>
			<rect x="-5518.1" y="-1815.3" class="st3" width="8.8" height="8.8"/>
			<rect x="-5509.4" y="-1850.3" class="st3" width="8.8" height="35"/>
			<rect x="-5579.4" y="-1762.7" width="8.8" height="35"/>
			<polygon points="-5584.9,-1727.7 -5584.9,-1718.9 -5584.9,-1710.2 -5491.8,-1710.2 -5491.8,-1718.9 -5491.8,-1727.7 			"/>
			<polygon points="-5526.9,-1745.2 -5526.9,-1754 -5535.6,-1754 -5535.6,-1762.7 -5544.4,-1762.7 -5544.4,-1754 -5553.2,-1754 
				-5553.2,-1745.2 -5561.9,-1745.2 -5561.9,-1736.4 -5518.1,-1736.4 -5518.1,-1745.2 			"/>
			<rect x="-5509.4" y="-1762.7" class="st3" width="8.8" height="35"/>
		</g>
	</g>
	<g>
		<path d="M-6006-1710.2v-28.1v-14.2l9.3,0l18.1,0v18.1h33.2v-48.5h-12.1v12.1h-36.4v-12.1l-12.1,0v-12.1v-12.1v-12.1v-12.1v-12.1
			v-12.1h12.1v-12.1h12.1h12.1h12.1v12.1h12.1v-12.1h12.1h12.1v12.1v12.1v12.1v12.1v12.1v82.7l-15.2,0l-0.1,14.3H-6006z
			 M-5969.6-1795.1h12.1v-12.1h12.1v-12.1v-12.1h-12.1v-12.1h-12.1h-12.1v12.1v12.1v12.1v12.1H-5969.6z"/>
	</g>
	<g>
		<path d="M-5599.9-1710.2h-14.6h-14.6h-14.6h-14.6v-14.3h-14.6v-14.3v-14.3v-14.3v-14.3v-14.3v-14.3v-14.3v-14.3v-14.3h14.6v-14.3
			h14.6h14.6h14.6h14.6h14.6v14.3h14.6v14.3v14.3h-14.6h-14.6v-14.3h-14.6h-14.6h-14.6v14.3v14.3v14.3v14.3v14.3v14.3v14.3h14.6
			h14.6h14.6v-14.3v-14.3h-14.6v-14.3v-14.3h14.6h14.6h14.6v14.3v14.3v14.3v14.3v14.3h-14.3v14.3H-5599.9z"/>
	</g>
	<rect x="-5674.7" y="-1697.2" style="fill:none;" width="184.7" height="74.1"/>
	<text transform="matrix(1 0 0 1 -5672.333 -1672.3971)" style="font-family:'Pixellari'; font-size:36px;">GameWatch</text>
	<g>
		<path class="st1" d="M-5209.1-1867.8v8.8v8.8h8.8v35h8.8v8.8h8.8v8.8h8.8v8.8v8.8h-8.8v8.8h-8.8v8.8h-8.8v35h-8.8v8.8v8.8h96.4
			v-8.8v-8.8h-8.8v-35h-8.8v-8.8h-8.8v-8.8h-8.8v-8.8v-8.8h8.8v-8.8h8.8v-8.8h8.8v-35h8.8v-8.8v-8.8H-5209.1z"/>
		<g>
			<rect x="-5174" y="-1797.8" width="8.8" height="8.8"/>
			<rect x="-5174" y="-1789" width="8.8" height="8.8"/>
			<rect x="-5182.8" y="-1780.2" width="8.8" height="8.8"/>
			<rect x="-5191.6" y="-1771.5" width="8.8" height="8.8"/>
			<rect x="-5182.8" y="-1806.5" width="8.8" height="8.8"/>
			<rect x="-5191.6" y="-1815.3" width="8.8" height="8.8"/>
			<rect x="-5200.3" y="-1850.3" width="8.8" height="35"/>
			<polygon points="-5209.1,-1867.8 -5209.1,-1859.1 -5209.1,-1850.3 -5112.7,-1850.3 -5112.7,-1859.1 -5112.7,-1867.8 			"/>
			<rect x="-5156.5" y="-1797.8" width="8.8" height="8.8"/>
			<rect x="-5156.5" y="-1789" width="8.8" height="8.8"/>
			<rect x="-5147.8" y="-1780.2" width="8.8" height="8.8"/>
			<rect x="-5139" y="-1771.5" width="8.8" height="8.8"/>
			<rect x="-5147.8" y="-1806.5" width="8.8" height="8.8"/>
			<rect x="-5165.3" y="-1815.3" width="8.8" height="8.8"/>
			<rect x="-5174" y="-1824" width="8.8" height="8.8"/>
			<rect x="-5156.5" y="-1824" width="8.8" height="8.8"/>
			<rect x="-5139" y="-1815.3" width="8.8" height="8.8"/>
			<rect x="-5130.2" y="-1850.3" width="8.8" height="35"/>
			<rect x="-5200.3" y="-1762.7" width="8.8" height="35"/>
			<polygon points="-5205.8,-1727.7 -5205.8,-1718.9 -5205.8,-1710.2 -5112.7,-1710.2 -5112.7,-1718.9 -5112.7,-1727.7 			"/>
			<polygon points="-5147.8,-1745.2 -5147.8,-1754 -5156.5,-1754 -5156.5,-1762.7 -5165.3,-1762.7 -5165.3,-1754 -5174,-1754 
				-5174,-1745.2 -5182.8,-1745.2 -5182.8,-1736.4 -5139,-1736.4 -5139,-1745.2 			"/>
			<rect x="-5130.2" y="-1762.7" width="8.8" height="35"/>
		</g>
	</g>
	<g>
		<path d="M-5220.8-1710.2h-14.6h-14.6h-14.6h-14.6v-14.3h-14.6v-14.3v-14.3v-14.3v-14.3v-14.3v-14.3v-14.3v-14.3v-14.3h14.6v-14.3
			h14.6h14.6h14.6h14.6h14.6v14.3h14.6v14.3v14.3h-14.6h-14.6v-14.3h-14.6h-14.6h-14.6v14.3v14.3v14.3v14.3v14.3v14.3v14.3h14.6
			h14.6h14.6v-14.3v-14.3h-14.6v-14.3v-14.3h14.6h14.6h14.6v14.3v14.3v14.3v14.3v14.3h-14.3v14.3H-5220.8z"/>
	</g>
	<rect x="-5307.4" y="-1697.2" style="fill:none;" width="208.4" height="164.8"/>
	<text transform="matrix(1 0 0 1 -5294.6597 -1644.1691)"><tspan x="0" y="0" style="font-family:'Pixellari'; font-size:77px;">Game</tspan><tspan x="-9.6" y="59" style="font-family:'Pixellari'; font-size:77px;">Watch</tspan></text>
	<g>
		<g>
			<path class="st4" d="M-5451.5-1182.2h-15.2h-15.2h-15.2h-15.2v-14.9h-15.2v-14.9v-14.9v-14.9v-14.9v-14.9v-14.9v-14.9v-14.9
				v-14.9h15.2v-14.9h15.2h15.2h15.2h15.2h15.2v14.9h15.2v14.9v14.9h-15.2h-15.2v-14.9h-15.2h-15.2h-15.2v14.9v14.9v14.9v14.9v14.9
				v14.9v14.9h15.2h15.2h15.2v-14.9v-14.9h-15.2v-14.9v-14.9h15.2h15.2h15.2v14.9v14.9v14.9v14.9v14.9h-12.2v14.9H-5451.5z"/>
		</g>
	</g>
	<g>
		<g>
			<rect x="-5398.6" y="-1272.8" class="st5" width="8.8" height="8.8"/>
			<rect x="-5398.6" y="-1264" class="st5" width="8.8" height="8.8"/>
			<rect x="-5407.4" y="-1255.2" class="st5" width="8.8" height="8.8"/>
			<rect x="-5416.1" y="-1246.5" class="st5" width="8.8" height="8.8"/>
			<rect x="-5407.4" y="-1281.5" class="st5" width="8.8" height="8.8"/>
			<rect x="-5416.1" y="-1290.3" class="st5" width="8.8" height="8.8"/>
			<rect x="-5424.9" y="-1325.3" class="st5" width="8.8" height="35"/>
			<polygon class="st6" points="-5433.6,-1342.8 -5433.6,-1334.1 -5433.6,-1325.3 -5328.3,-1325.3 -5328.3,-1334.1 -5328.3,-1342.8 
							"/>
			<rect x="-5377.1" y="-1275.8" class="st7" width="8.8" height="8.8"/>
			<rect x="-5377.1" y="-1267" class="st7" width="8.8" height="8.8"/>
			<rect x="-5368.3" y="-1258.2" class="st7" width="8.8" height="8.8"/>
			<rect x="-5359.6" y="-1249.5" class="st7" width="8.8" height="8.8"/>
			<rect x="-5368.3" y="-1284.5" class="st7" width="8.8" height="8.8"/>
			<rect x="-5385.8" y="-1293.3" class="st7" width="8.8" height="8.8"/>
			<rect x="-5394.6" y="-1302" class="st7" width="8.8" height="8.8"/>
			<rect x="-5377.1" y="-1302" class="st7" width="8.8" height="8.8"/>
			<rect x="-5359.6" y="-1293.3" class="st7" width="8.8" height="8.8"/>
			<rect x="-5350.8" y="-1328.3" class="st7" width="8.8" height="35"/>
			<rect x="-5424.9" y="-1237.7" class="st5" width="8.8" height="35"/>
			<polygon class="st6" points="-5430.1,-1202.7 -5430.1,-1193.9 -5430.1,-1185.2 -5328.3,-1185.2 -5328.3,-1193.9 -5328.3,-1202.7 
							"/>
			<polygon class="st7" points="-5368.3,-1223.2 -5368.3,-1232 -5377.1,-1232 -5377.1,-1240.7 -5385.8,-1240.7 -5385.8,-1232 
				-5394.6,-1232 -5394.6,-1223.2 -5403.4,-1223.2 -5403.4,-1214.4 -5359.6,-1214.4 -5359.6,-1223.2 			"/>
			<rect x="-5350.8" y="-1240.7" class="st7" width="8.8" height="35"/>
		</g>
	</g>
	<rect x="-5530.9" y="-1175.2" style="fill:none;" width="208.4" height="164.8"/>
	<text transform="matrix(1 0 0 1 -5518.1138 -1122.1552)"><tspan x="0" y="0" class="st4" style="font-family:'Pixellari'; font-size:77px;">Game</tspan><tspan x="-9.6" y="59" class="st4" style="font-family:'Pixellari'; font-size:77px;">Watch</tspan></text>
	<g>
		<g>
			<g>
				<path class="st4" d="M-3930.1,846.9h-49.5h-49.5h-49.5h-49.5v-47.7h-49.5v-47.7v-47.7v-47.7v-47.7v-47.7V513v-47.7v-47.7v-47.7
					h49.5v-47.3l247.4,0.1v47.2h49.5v47.7v47.7h-49.5h-49.5v-47.7h-49.5h-49.5h-49.5v47.7V513v47.7v47.7v47.7v47.7v47.7h49.5h49.5
					h49.5v-47.7v-47.7h-49.5v-47.7v-47.7h49.5h49.5h45.1v238.5h-35.3v47.7H-3930.1z"/>
			</g>
		</g>
		<g>
			<path class="st8" d="M-3887.3,322.6v9.6v28.1V398h23.5v106.4h28.1v28.1h28.1v28.1h28.1v27.8h-28.1v28.1h-28.1v28.1h-28.1v127.1
				h-13.1v9.6v28.1v37.7l317.6,0v-37.7v-37.7h-23.5V657.7h-28.1v-28.1h-28.1v-28.1h-28.1v-24.9v-3.2v-24.9h28.1v-28.1h28.1v-28.1
				h28.1V398h23.5v-37.7v-37.7H-3887.3z M-3807.4,672.8h28.1v-14.2v-13.9h28.1v-14.2v-13.9h28.1v-14.2v-13.9v-14.2v-14.2v-28.1
				h-28.1v-28.1h-28.1v-28.1h-28.1V398h193.4v91.4h-28.1v28.1h-28.1v28.1h-28.1v28.1v3.2v28.1h1.6h26.5v28.1h1.6h26.5v28.1h1.6h26.5
				v110.6h-193.4V672.8z"/>
			<polygon class="st4" points="-3694.9,478.6 -3666.8,478.6 -3666.8,447.3 -3698.1,447.3 -3698.1,475.4 -3722.9,475.4 
				-3722.9,447.3 -3754.2,447.3 -3754.2,478.6 -3752.6,478.6 -3726.2,478.6 -3726.2,506.6 -3724.6,506.6 -3694.9,506.6 			"/>
			<polygon class="st4" points="-3666.8,713.8 -3666.8,685.8 -3694.9,685.8 -3694.9,657.7 -3726.2,657.7 -3726.2,685.8 
				-3754.2,685.8 -3754.2,713.8 -3782.3,713.8 -3782.3,745.1 -3638.8,745.1 -3638.8,713.8 			"/>
		</g>
		<rect x="-4189.2" y="869.3" style="fill:none;" width="667.6" height="372.6"/>
		<text transform="matrix(1 0 0 1 -4148.2036 1039.0687)"><tspan x="0" y="0" class="st4" style="font-family:'Pixellari'; font-size:246.6285px;">Game</tspan><tspan x="-30.8" y="189" class="st4" style="font-family:'Pixellari'; font-size:246.6285px;">Watch</tspan></text>
	</g>
	<g>
		<g>
			<g>
				<path class="st4" d="M590.7,4176.9H488.8H386.9H284.9H183v-98.3H81.1v-98.3v-98.3v-98.3v-98.3v-98.3v-98.3v-98.3v-98.3v-98.3
					H183V3097l509.6,0.1v97.3h101.9v98.3v98.3H692.6H590.7v-98.3H488.8H386.9H284.9v98.3v98.3v98.3v98.3v98.3v98.3v98.3h101.9h101.9
					h101.9v-98.3v-98.3H488.8v-98.3v-98.3h101.9h101.9h92.9v491.3h-72.8v98.3H590.7z"/>
			</g>
		</g>
		<g>
			<path class="st8" d="M679.1,3097.1v19.8v57.8v77.6h48.4v219.3h57.8v57.8h57.8v57.8h57.8v57.3h-57.8v57.8h-57.8v57.8h-57.8v261.8
				h-26.9v19.8v57.8v77.6l654.3,0v-77.6v-77.6h-48.4v-234.5h-57.8v-57.8h-57.8v-57.8h-57.8v-51.2v-6.6v-51.2h57.8v-57.8h57.8v-57.8
				h57.8v-194.9h48.4v-77.6v-77.6H679.1z M843.6,3818.3h57.8v-29.2v-28.6h57.8v-29.2v-28.6h57.8v-29.2v-28.6v-29.2v-29.2v-57.8
				h-57.8V3471h-57.8v-57.8h-57.8v-160.9h398.5v188.3h-57.8v57.8h-57.8v57.8h-57.8v57.8v6.6v57.8h3.3h54.5v57.8h3.3h54.5v57.8h3.3
				h54.5v227.9H843.6V3818.3z"/>
			<polygon class="st4" points="1075.3,3418.2 1133.1,3418.2 1133.1,3353.9 1068.7,3353.9 1068.7,3411.6 1017.5,3411.6 
				1017.5,3353.9 953.1,3353.9 953.1,3418.2 956.4,3418.2 1010.9,3418.2 1010.9,3476 1014.2,3476 1075.3,3476 			"/>
			<polygon class="st4" points="1133.1,3902.9 1133.1,3845.1 1075.3,3845.1 1075.3,3787.3 1010.9,3787.3 1010.9,3845.1 
				953.1,3845.1 953.1,3902.9 895.3,3902.9 895.3,3967.3 1190.9,3967.3 1190.9,3902.9 			"/>
		</g>
	</g>
	<g>
		<g>
			<g>
				<path class="st4" d="M557.1,1139.2H450.7H344.3H237.8H131.4v-102.6H25V934V831.5V728.9V626.3V523.7V421.1V318.5V216V113.4h106.4
					V11.7l532.1,0.1v101.6h106.4V216v102.6H663.5H557.1V216H450.7H344.3H237.8v102.6v102.6v102.6v102.6v102.6v102.6V934h106.4h106.4
					h106.4V831.5V728.9H450.7V626.3V523.7h106.4h106.4h97v512.9h-76v102.6H557.1z"/>
			</g>
		</g>
		<g>
			<path class="st8" d="M649.3,11.7v20.7v60.3v81h50.6v228.9h60.3V463h60.3v60.3h60.3v59.8h-60.3v60.3h-60.3v60.3h-60.3v273.4h-28.1
				v20.7v60.3v81l683.2,0v-81v-81h-50.6V732.4h-60.3v-60.3h-60.3v-60.3h-60.3v-53.5v-6.9v-53.5h60.3v-60.3h60.3v-60.3h60.3V173.8
				h50.6v-81v-81H649.3z M821.2,764.8h60.3v-30.5v-29.9h60.3V674v-29.9h60.3v-30.5v-29.9v-30.5v-30.5v-60.3h-60.3v-60.3h-60.3v-60.3
				h-60.3v-168h416.1v196.6h-60.3v60.3h-60.3V491h-60.3v60.3v6.9v60.3h3.4h56.9V679h3.4h56.9v60.3h3.4h56.9v237.9H821.2V764.8z"/>
			<polygon class="st4" points="1063.1,347.1 1123.4,347.1 1123.4,279.8 1056.2,279.8 1056.2,340.2 1002.7,340.2 1002.7,279.8 
				935.5,279.8 935.5,347.1 939,347.1 995.9,347.1 995.9,407.4 999.3,407.4 1063.1,407.4 			"/>
			<polygon class="st4" points="1123.4,853.1 1123.4,792.8 1063.1,792.8 1063.1,732.4 995.9,732.4 995.9,792.8 935.5,792.8 
				935.5,853.1 875.2,853.1 875.2,920.3 1183.8,920.3 1183.8,853.1 			"/>
		</g>
		<g>
			<path class="st4" d="M320.2,1552.6H287h-33.2h-33.2h-33.2v-33.2h-33.2v-33.2v-33.2V1420v-33.2v-33.2v-33.2v-33.2v-33.2v-33.2
				h33.2V1188h33.2h33.2H287h33.2h33.2v33.2h33.2v33.2v33.2h-33.2h-33.2v-33.2H287h-33.2h-33.2v33.2v33.2v33.2v33.2v33.2v33.2v33.2
				h33.2H287h33.2v-33.2V1420H287v-33.2v-33.2h33.2h33.2h33.2v33.2v33.2v33.2v33.2v33.2h-33.2v33.2H320.2z"/>
			<path class="st4" d="M618.5,1552.6h-33.2h-33.2h-33.2h-33.2v-33.2h-33.2v-33.2v-33.2V1420v-33.2v-33.2v-33.2h33.2v-33.2h33.2
				h33.2h33.2h33.2v33.2h33.2v33.2v33.2v33.2v33.2v33.2v33.2v33.2H618.5z M552.2,1486.3h33.2v-33.2V1420v-33.2v-33.2h-33.2h-33.2
				v33.2v33.2v33.2v33.2H552.2z"/>
			<path class="st4" d="M1016.4,1552.6h-33.2v-33.2v-33.2v-33.2V1420v-33.2v-33.2h-33.2h-33.2v33.2v33.2v33.2v33.2v33.2v33.2h-33.2
				h-33.2v-33.2v-33.2v-33.2V1420v-33.2v-33.2h-33.2h-33.2v33.2v33.2v33.2v33.2v33.2v33.2h-33.2H718v-33.2v-33.2v-33.2V1420v-33.2
				v-33.2v-33.2v-33.2h33.2h33.2h33.2h33.2h33.2h33.2h33.2h33.2h33.2v33.2h33.2v33.2v33.2v33.2v33.2v33.2v33.2v33.2H1016.4z"/>
			<path class="st4" d="M1248.5,1552.6h-33.2h-33.2H1149v-33.2h-33.2v-33.2v-33.2V1420v-33.2v-33.2v-33.2h33.2v-33.2h33.2h33.2h33.2
				h33.2v33.2h33.2v33.2v33.2v33.2h-33.2h-33.2h-33.2h-33.2v33.2v33.2h33.2h33.2v-33.2h33.2h33.2v33.2v33.2h-33.2v33.2H1248.5z
				 M1215.3,1386.9h33.2v-33.2h-33.2h-33.2v33.2H1215.3z"/>
			<path class="st4" d="M287,1959.1h-33.2v-33.2h-33.2h-33.2v33.2h-33.2h-33.2v-33.2H88.1v-33.2H54.9v-33.2v-33.2v-33.2v-33.2V1727
				v-33.2v-33.2v-33.2v-33.2h33.2h33.2v33.2v33.2v33.2v33.2v33.2v33.2v33.2v33.2h33.2h33.2v-33.2v-33.2v-33.2V1727v-33.2h33.2h33.2
				v33.2v33.2v33.2v33.2v33.2H287h33.2v-33.2v-33.2v-33.2V1727v-33.2v-33.2v-33.2v-33.2h33.2h33.2v33.2v33.2v33.2v33.2v33.2v33.2
				v33.2v33.2v33.2h-33.2v33.2h-33.2v33.2H287z"/>
			<path class="st4" d="M618.5,1959.1h-33.2h-33.2h-33.2h-33.2v-33.2h-33.2v-33.2v-33.2v-33.2v-33.2v-33.2V1727h33.2v-33.2h33.2
				h33.2h33.2h33.2v33.2h33.2v33.2v33.2v33.2v33.2v33.2v33.2v33.2H618.5z M552.2,1892.8h33.2v-33.2v-33.2v-33.2v-33.2h-33.2h-33.2
				v33.2v33.2v33.2v33.2H552.2z"/>
			<path class="st4" d="M784.3,1959.1h-33.2v-33.2H718v-33.2v-33.2v-33.2v-33.2v-33.2h-33.2V1727v-33.2H718v-33.2v-33.2v-33.2h33.2
				h33.2v33.2v33.2v33.2h33.2v33.2v33.2h-33.2v33.2v33.2v33.2v33.2h33.2v33.2v33.2H784.3z"/>
			<path class="st4" d="M1016.4,1959.1h-33.2h-33.2h-33.2v-33.2h-33.2v-33.2v-33.2v-33.2v-33.2v-33.2V1727h33.2v-33.2h33.2h33.2
				h33.2h33.2v33.2h33.2v33.2v33.2h-33.2h-33.2v-33.2h-33.2h-33.2v33.2v33.2v33.2v33.2h33.2h33.2v-33.2h33.2h33.2v33.2v33.2h-33.2
				v33.2H1016.4z"/>
			<path class="st4" d="M1347.9,1959.1h-33.2v-33.2v-33.2v-33.2v-33.2v-33.2v-33.2h-33.2h-33.2v33.2h-33.2v33.2v33.2v33.2v33.2v33.2
				h-33.2H1149v-33.2v-33.2v-33.2v-33.2v-33.2v-33.2V1727v-33.2v-33.2v-33.2v-33.2h33.2h33.2v33.2v33.2v33.2v33.2h33.2v-33.2h33.2
				h33.2h33.2v33.2h33.2v33.2v33.2v33.2v33.2v33.2v33.2v33.2H1347.9z"/>
		</g>
	</g>
	<g>
		<g>
			<g>
				<path class="st4" d="M-3961-1273.4h-68.1h-68.1h-68.1h-68.1v-65.7h-68.1v-65.7v-65.7v-65.7v-65.7v-65.7v-65.7v-65.7v-65.7v-65.7
					h68.1v-65.1l340.7,0.1v65.1h68.1v65.7v65.7h-68.1h-68.1v-65.7h-68.1h-68.1h-68.1v65.7v65.7v65.7v65.7v65.7v65.7v65.7h68.1h68.1
					h68.1v-65.7v-65.7h-68.1v-65.7v-65.7h68.1h68.1h62.1v328.4h-48.7v65.7H-3961z"/>
			</g>
		</g>
		<g>
			<path class="st8" d="M-3902-1995.4v13.2v38.6v51.9h32.4v146.6h38.6v38.6h38.6v38.6h38.6v38.3h-38.6v38.6h-38.6v38.6h-38.6v175.1
				h-18v13.2v38.6v51.9l437.5,0v-51.9v-51.9h-32.4v-156.8h-38.6v-38.6h-38.6v-38.6h-38.6v-34.2v-4.4v-34.2h38.6v-38.6h38.6v-38.6
				h38.6v-130.3h32.4v-51.9v-51.9H-3902z M-3791.9-1513.2h38.6v-19.5v-19.1h38.6v-19.5v-19.1h38.6v-19.5v-19.1v-19.5v-19.5v-38.6
				h-38.6v-38.6h-38.6v-38.6h-38.6v-107.6h266.4v125.9h-38.6v38.6h-38.6v38.6h-38.6v38.6v4.4v38.6h2.2h36.4v38.6h2.2h36.4v38.6h2.2
				h36.4v152.4h-266.4V-1513.2z"/>
			<polygon class="st4" points="-3637,-1780.7 -3598.4,-1780.7 -3598.4,-1823.7 -3641.4,-1823.7 -3641.4,-1785.1 -3675.7,-1785.1 
				-3675.7,-1823.7 -3718.7,-1823.7 -3718.7,-1780.7 -3716.5,-1780.7 -3680.1,-1780.7 -3680.1,-1742 -3677.9,-1742 -3637,-1742 			
				"/>
			<polygon class="st4" points="-3598.4,-1456.6 -3598.4,-1495.3 -3637,-1495.3 -3637,-1533.9 -3680.1,-1533.9 -3680.1,-1495.3 
				-3718.7,-1495.3 -3718.7,-1456.6 -3757.4,-1456.6 -3757.4,-1413.6 -3559.7,-1413.6 -3559.7,-1456.6 			"/>
		</g>
		<rect x="-4317.8" y="-1242.5" style="fill:none;" width="919.5" height="513.2"/>
		<text transform="matrix(1 0 0 1 -4261.3677 -1008.6851)"><tspan x="0" y="0" class="st4" style="font-family:'Pixellari'; font-size:339.678px;">Game</tspan><tspan x="-42.5" y="260.3" class="st4" style="font-family:'Pixellari'; font-size:339.678px;">Watch</tspan></text>
	</g>
	<g>
		<g>
			<g>
				<path class="st8" d="M-1924.6,3559.2v308.5h160v308.5h-480.1V3096.4h480.1v154.3h144.3v-147.3h-76v-314l-708.4-0.2v153h-160
					v1388.3h160v154.3h742.1v-314h42.3v-411.1h90.7v-90.7h70.9v-109.7H-1924.6z"/>
			</g>
		</g>
		<g>
			<path class="st8" d="M-1625.8,2789.3v31.1v90.7v121.8h76v344.2h90.7v90.7h90.7v90.7h90.7v89.9h-90.7v90.7h-90.7v90.7h-90.7v411.1
				h-42.3v31.1v90.7v121.8l1027.4,0V4363v-121.8h-76V3873h-90.7v-90.7h-90.7v-90.7h-90.7v-80.4v-10.4v-80.4h90.7v-90.7h90.7v-90.7
				h90.7v-306h76v-121.8v-121.8H-1625.8z M-1367.4,3921.6h90.7v-45.8v-44.9h90.7v-45.8v-44.9h90.7v-45.8v-44.9v-45.8v-45.8v-90.7
				h-90.7v-90.7h-90.7v-90.7h-90.7v-252.7h625.7v295.6h-90.7v90.7h-90.7v90.7h-90.7v90.7v10.4v90.7h5.2h85.6v90.7h5.2h85.6v90.7h5.2
				h85.6v357.8h-625.7V3921.6z"/>
			<polygon class="st8" points="-1003.6,3293.6 -912.9,3293.6 -912.9,3192.5 -1014,3192.5 -1014,3283.2 -1094.4,3283.2 
				-1094.4,3192.5 -1195.5,3192.5 -1195.5,3293.6 -1190.3,3293.6 -1104.7,3293.6 -1104.7,3384.3 -1099.6,3384.3 -1003.6,3384.3 			
				"/>
			<polygon class="st8" points="-912.9,4054.5 -912.9,3963.7 -1003.6,3963.7 -1003.6,3873 -1104.7,3873 -1104.7,3963.7 
				-1195.5,3963.7 -1195.5,4054.5 -1286.2,4054.5 -1286.2,4155.6 -822.2,4155.6 -822.2,4054.5 			"/>
		</g>
	</g>
	<g>
		<g>
			<g>
				<path class="st1" d="M546.8-1667.8v131.4H615v131.4H410.5v-459.8H615v65.7h61.5v-62.7H644v-133.7l-301.7-0.1v65.1h-68.1v591.2
					h68.1v65.7h316v-133.7h18v-175.1h38.6v-38.6h30.2v-46.7H546.8z"/>
			</g>
		</g>
		<g>
			<path class="st1" d="M674-1995.7v13.2v38.6v51.9h32.4v146.6h38.6v38.6h38.6v38.6h38.6v38.3h-38.6v38.6h-38.6v38.6h-38.6v175.1
				h-18v13.2v38.6v51.9l437.5,0v-51.9v-51.9h-32.4v-156.8h-38.6v-38.6h-38.6v-38.6h-38.6v-34.2v-4.4v-34.2h38.6v-38.6h38.6v-38.6
				h38.6v-130.3h32.4v-51.9v-51.9H674z M784.1-1513.5h38.6v-19.5v-19.1h38.6v-19.5v-19.1H900v-19.5v-19.1v-19.5v-19.5v-38.6h-38.6
				v-38.6h-38.6v-38.6h-38.6v-107.6h266.4v125.9h-38.6v38.6h-38.6v38.6h-38.6v38.6v4.4v38.6h2.2h36.4v38.6h2.2h36.4v38.6h2.2h36.4
				v152.4H784.1V-1513.5z"/>
			<polygon class="st1" points="939,-1780.9 977.6,-1780.9 977.6,-1824 934.6,-1824 934.6,-1785.4 900.3,-1785.4 900.3,-1824 
				857.3,-1824 857.3,-1780.9 859.5,-1780.9 895.9,-1780.9 895.9,-1742.3 898.1,-1742.3 939,-1742.3 			"/>
			<polygon class="st1" points="977.6,-1456.9 977.6,-1495.5 939,-1495.5 939,-1534.2 895.9,-1534.2 895.9,-1495.5 857.3,-1495.5 
				857.3,-1456.9 818.6,-1456.9 818.6,-1413.9 1016.3,-1413.9 1016.3,-1456.9 			"/>
		</g>
		<rect x="258.2" y="-1242.8" style="fill:none;" width="919.5" height="513.2"/>
		<text transform="matrix(1 0 0 1 314.6333 -1008.9622)"><tspan x="0" y="0" class="st1" style="font-family:'Pixellari'; font-size:339.678px;">Game</tspan><tspan x="-42.5" y="260.3" class="st1" style="font-family:'Pixellari'; font-size:339.678px;">Watch</tspan></text>
	</g>
	<g>
		<rect x="-3856.3" y="1502.2" class="st4" width="500.5" height="500.5"/>
		<g>
			<g>
				<g>
					<path class="st8" d="M-3664.6,1742.1v46.3h24v46.3h-72.1v-162.1h72.1v23.2h21.7v-22.1h-11.4v-47.1l-106.3,0v23h-24v208.4h24
						v23.2h111.4v-47.1h6.3v-61.7h13.6v-13.6h10.6v-16.5H-3664.6z"/>
				</g>
			</g>
			<g>
				<path class="st8" d="M-3619.7,1626.6v4.7v13.6v18.3h11.4v51.7h13.6v13.6h13.6v13.6h13.6v13.5h-13.6v13.6h-13.6v13.6h-13.6v61.7
					h-6.3v4.7v13.6v18.3l154.2,0v-18.3v-18.3h-11.4v-55.3h-13.6v-13.6h-13.6V1762h-13.6v-12.1v-1.6v-12.1h13.6v-13.6h13.6v-13.6
					h13.6v-45.9h11.4v-18.3v-18.3H-3619.7z M-3581,1796.6h13.6v-6.9v-6.7h13.6v-6.9v-6.7h13.6v-6.9v-6.7v-6.9v-6.9v-13.6h-13.6
					v-13.6h-13.6v-13.6h-13.6v-37.9h93.9v44.4h-13.6v13.6h-13.6v13.6h-13.6v13.6v1.6v13.6h0.8h12.8v13.6h0.8h12.8v13.6h0.8h12.8
					v53.7h-93.9V1796.6z"/>
				<polygon class="st8" points="-3526.4,1702.3 -3512.7,1702.3 -3512.7,1687.1 -3527.9,1687.1 -3527.9,1700.7 -3540,1700.7 
					-3540,1687.1 -3555.2,1687.1 -3555.2,1702.3 -3554.4,1702.3 -3541.5,1702.3 -3541.5,1715.9 -3540.8,1715.9 -3526.4,1715.9 				
					"/>
				<polygon class="st8" points="-3512.7,1816.5 -3512.7,1802.9 -3526.4,1802.9 -3526.4,1789.3 -3541.5,1789.3 -3541.5,1802.9 
					-3555.2,1802.9 -3555.2,1816.5 -3568.8,1816.5 -3568.8,1831.7 -3499.1,1831.7 -3499.1,1816.5 				"/>
			</g>
		</g>
	</g>
	<g>
		<rect x="-3355.8" y="1502.2" class="st8" width="500.5" height="500.5"/>
		<g>
			<g>
				<g>
					<path class="st4" d="M-3164.1,1742.1v46.3h24v46.3h-72.1v-162.1h72.1v23.2h21.7v-22.1h-11.4v-47.1l-106.3,0v23h-24v208.4h24
						v23.2h111.4v-47.1h6.3v-61.7h13.6v-13.6h10.6v-16.5H-3164.1z"/>
				</g>
			</g>
			<g>
				<path class="st4" d="M-3119.2,1626.6v4.7v13.6v18.3h11.4v51.7h13.6v13.6h13.6v13.6h13.6v13.5h-13.6v13.6h-13.6v13.6h-13.6v61.7
					h-6.3v4.7v13.6v18.3l154.2,0v-18.3v-18.3h-11.4v-55.3h-13.6v-13.6h-13.6V1762h-13.6v-12.1v-1.6v-12.1h13.6v-13.6h13.6v-13.6
					h13.6v-45.9h11.4v-18.3v-18.3H-3119.2z M-3080.5,1796.6h13.6v-6.9v-6.7h13.6v-6.9v-6.7h13.6v-6.9v-6.7v-6.9v-6.9v-13.6h-13.6
					v-13.6h-13.6v-13.6h-13.6v-37.9h93.9v44.4h-13.6v13.6h-13.6v13.6h-13.6v13.6v1.6v13.6h0.8h12.8v13.6h0.8h12.8v13.6h0.8h12.8
					v53.7h-93.9V1796.6z"/>
				<polygon class="st4" points="-3025.9,1702.3 -3012.2,1702.3 -3012.2,1687.1 -3027.4,1687.1 -3027.4,1700.7 -3039.5,1700.7 
					-3039.5,1687.1 -3054.7,1687.1 -3054.7,1702.3 -3053.9,1702.3 -3041,1702.3 -3041,1715.9 -3040.3,1715.9 -3025.9,1715.9 				"/>
				<polygon class="st4" points="-3012.2,1816.5 -3012.2,1802.9 -3025.9,1802.9 -3025.9,1789.3 -3041,1789.3 -3041,1802.9 
					-3054.7,1802.9 -3054.7,1816.5 -3068.3,1816.5 -3068.3,1831.7 -2998.6,1831.7 -2998.6,1816.5 				"/>
			</g>
		</g>
	</g>
	<g>
		<g>
			<g>
				<path class="st0" d="M-1735.9,694.8v131.4h68.1v131.4h-204.4V497.8h204.4v65.7h61.5v-62.7h-32.4V367l-301.7-0.1v65.1h-68.1
					v591.2h68.1v65.7h316V955.2h18V780.2h38.6v-38.6h30.2v-46.7H-1735.9z"/>
			</g>
		</g>
		<g>
			<path class="st0" d="M-1608.6,367v13.2v38.6v51.9h32.4v146.6h38.6V656h38.6v38.6h38.6v38.3h-38.6v38.6h-38.6v38.6h-38.6v175.1
				h-18v13.2v38.6v51.9l437.5,0v-51.9v-51.9h-32.4V828.5h-38.6v-38.6h-38.6v-38.6h-38.6V717v-4.4v-34.2h38.6v-38.6h38.6V601h38.6
				V470.8h32.4v-51.9V367H-1608.6z M-1498.6,849.2h38.6v-19.5v-19.1h38.6V791v-19.1h38.6v-19.5v-19.1v-19.5v-19.5v-38.6h-38.6V617
				h-38.6v-38.6h-38.6V470.8h266.4v125.9h-38.6v38.6h-38.6v38.6h-38.6v38.6v4.4v38.6h2.2h36.4v38.6h2.2h36.4v38.6h2.2h36.4v152.4
				h-266.4V849.2z"/>
			<polygon class="st0" points="-1343.7,581.7 -1305.1,581.7 -1305.1,538.7 -1348.1,538.7 -1348.1,577.3 -1382.3,577.3 
				-1382.3,538.7 -1425.4,538.7 -1425.4,581.7 -1423.2,581.7 -1386.7,581.7 -1386.7,620.4 -1384.5,620.4 -1343.7,620.4 			"/>
			<polygon class="st0" points="-1305.1,905.8 -1305.1,867.1 -1343.7,867.1 -1343.7,828.5 -1386.7,828.5 -1386.7,867.1 
				-1425.4,867.1 -1425.4,905.8 -1464,905.8 -1464,948.8 -1266.4,948.8 -1266.4,905.8 			"/>
		</g>
		<rect x="-2024.4" y="1119.8" style="fill:none;" width="919.5" height="513.2"/>
		<text transform="matrix(1 0 0 1 -1968.0344 1353.7042)"><tspan x="0" y="0" class="st0" style="font-family:'Pixellari'; font-size:339.678px;">Game</tspan><tspan x="-42.5" y="260.3" class="st0" style="font-family:'Pixellari'; font-size:339.678px;">Watch</tspan></text>
	</g>
	<g>
		<rect x="-4850.4" y="1507.2" class="st9" width="490.5" height="490.5"/>
		<g>
			<g>
				<g>
					<path class="st0" d="M-4663.5,1743.5v46.3h24v46.3h-72.1v-162.1h72.1v23.2h21.7v-22.1h-11.4V1628l-106.3,0v23h-24v208.4h24
						v23.2h111.4v-47.1h6.3v-61.7h13.6V1760h10.6v-16.5H-4663.5z"/>
				</g>
			</g>
			<g>
				<path class="st0" d="M-4618.7,1628v4.7v13.6v18.3h11.4v51.7h13.6v13.6h13.6v13.6h13.6v13.5h-13.6v13.6h-13.6v13.6h-13.6v61.7
					h-6.3v4.7v13.6v18.3l154.2,0v-18.3v-18.3h-11.4v-55.3h-13.6V1777h-13.6v-13.6h-13.6v-12.1v-1.6v-12.1h13.6v-13.6h13.6v-13.6
					h13.6v-45.9h11.4v-18.3V1628H-4618.7z M-4579.9,1797.9h13.6v-6.9v-6.7h13.6v-6.9v-6.7h13.6v-6.9v-6.7v-6.9v-6.9v-13.6h-13.6
					v-13.6h-13.6v-13.6h-13.6v-37.9h93.9v44.4h-13.6v13.6h-13.6v13.6h-13.6v13.6v1.6v13.6h0.8h12.8v13.6h0.8h12.8v13.6h0.8h12.8
					v53.7h-93.9V1797.9z"/>
				<polygon class="st0" points="-4525.3,1703.6 -4511.7,1703.6 -4511.7,1688.5 -4526.9,1688.5 -4526.9,1702.1 -4538.9,1702.1 
					-4538.9,1688.5 -4554.1,1688.5 -4554.1,1703.6 -4553.3,1703.6 -4540.5,1703.6 -4540.5,1717.3 -4539.7,1717.3 -4525.3,1717.3 
									"/>
				<polygon class="st0" points="-4511.7,1817.9 -4511.7,1804.3 -4525.3,1804.3 -4525.3,1790.6 -4540.5,1790.6 -4540.5,1804.3 
					-4554.1,1804.3 -4554.1,1817.9 -4567.7,1817.9 -4567.7,1833 -4498.1,1833 -4498.1,1817.9 				"/>
			</g>
		</g>
	</g>
	<g>
		<g>
			<g>
				<path class="st8" d="M-1735.9-1667.8v131.4h68.1v131.4h-204.4v-459.8h204.4v65.7h61.5v-62.7h-32.4v-133.7l-301.7-0.1v65.1h-68.1
					v591.2h68.1v65.7h316v-133.7h18v-175.1h38.6v-38.6h30.2v-46.7H-1735.9z"/>
			</g>
		</g>
		<g>
			<path class="st8" d="M-1608.6-1995.7v13.2v38.6v51.9h32.4v146.6h38.6v38.6h38.6v38.6h38.6v38.3h-38.6v38.6h-38.6v38.6h-38.6
				v175.1h-18v13.2v38.6v51.9l437.5,0v-51.9v-51.9h-32.4v-156.8h-38.6v-38.6h-38.6v-38.6h-38.6v-34.2v-4.4v-34.2h38.6v-38.6h38.6
				v-38.6h38.6v-130.3h32.4v-51.9v-51.9H-1608.6z M-1498.6-1513.5h38.6v-19.5v-19.1h38.6v-19.5v-19.1h38.6v-19.5v-19.1v-19.5v-19.5
				v-38.6h-38.6v-38.6h-38.6v-38.6h-38.6v-107.6h266.4v125.9h-38.6v38.6h-38.6v38.6h-38.6v38.6v4.4v38.6h2.2h36.4v38.6h2.2h36.4
				v38.6h2.2h36.4v152.4h-266.4V-1513.5z"/>
			<polygon class="st8" points="-1343.7,-1780.9 -1305.1,-1780.9 -1305.1,-1824 -1348.1,-1824 -1348.1,-1785.4 -1382.3,-1785.4 
				-1382.3,-1824 -1425.4,-1824 -1425.4,-1780.9 -1423.2,-1780.9 -1386.7,-1780.9 -1386.7,-1742.3 -1384.5,-1742.3 -1343.7,-1742.3 
							"/>
			<polygon class="st8" points="-1305.1,-1456.9 -1305.1,-1495.5 -1343.7,-1495.5 -1343.7,-1534.2 -1386.7,-1534.2 -1386.7,-1495.5 
				-1425.4,-1495.5 -1425.4,-1456.9 -1464,-1456.9 -1464,-1413.9 -1266.4,-1413.9 -1266.4,-1456.9 			"/>
		</g>
		<rect x="-2024.4" y="-1242.8" style="fill:none;" width="919.5" height="513.2"/>
		<text transform="matrix(1 0 0 1 -1968.0334 -1008.9625)"><tspan x="0" y="0" class="st8" style="font-family:'Pixellari'; font-size:339.678px;">Game</tspan><tspan x="-42.5" y="260.3" class="st8" style="font-family:'Pixellari'; font-size:339.678px;">Watch</tspan></text>
	</g>
	<g>
		<rect x="-4356.9" y="1502.2" class="st0" width="500.5" height="500.5"/>
		<g>
			<g>
				<g>
					<path class="st8" d="M-4165.1,1742.1v46.3h24v46.3h-72.1v-162.1h72.1v23.2h21.7v-22.1h-11.4v-47.1l-106.3,0v23h-24v208.4h24
						v23.2h111.4v-47.1h6.3v-61.7h13.6v-13.6h10.6v-16.5H-4165.1z"/>
				</g>
			</g>
			<g>
				<path class="st8" d="M-4120.3,1626.6v4.7v13.6v18.3h11.4v51.7h13.6v13.6h13.6v13.6h13.6v13.5h-13.6v13.6h-13.6v13.6h-13.6v61.7
					h-6.3v4.7v13.6v18.3l154.2,0v-18.3v-18.3h-11.4v-55.3h-13.6v-13.6h-13.6V1762h-13.6v-12.1v-1.6v-12.1h13.6v-13.6h13.6v-13.6
					h13.6v-45.9h11.4v-18.3v-18.3H-4120.3z M-4081.5,1796.6h13.6v-6.9v-6.7h13.6v-6.9v-6.7h13.6v-6.9v-6.7v-6.9v-6.9v-13.6h-13.6
					v-13.6h-13.6v-13.6h-13.6v-37.9h93.9v44.4h-13.6v13.6h-13.6v13.6h-13.6v13.6v1.6v13.6h0.8h12.8v13.6h0.8h12.8v13.6h0.8h12.8
					v53.7h-93.9V1796.6z"/>
				<polygon class="st8" points="-4026.9,1702.3 -4013.3,1702.3 -4013.3,1687.1 -4028.4,1687.1 -4028.4,1700.7 -4040.5,1700.7 
					-4040.5,1687.1 -4055.7,1687.1 -4055.7,1702.3 -4054.9,1702.3 -4042,1702.3 -4042,1715.9 -4041.3,1715.9 -4026.9,1715.9 				"/>
				<polygon class="st8" points="-4013.3,1816.5 -4013.3,1802.9 -4026.9,1802.9 -4026.9,1789.3 -4042,1789.3 -4042,1802.9 
					-4055.7,1802.9 -4055.7,1816.5 -4069.3,1816.5 -4069.3,1831.7 -3999.6,1831.7 -3999.6,1816.5 				"/>
			</g>
		</g>
	</g>
	<g>
		<g>
			<g>
				<path class="st8" d="M-6578-1078.4v39.8h20.6v39.8h-61.9v-139.3h61.9v19.9h18.6v-19h-9.8v-40.5l-91.4,0v19.7h-20.6v179.1h20.6
					v19.9h95.7v-40.5h5.5v-53h11.7v-11.7h9.1v-14.2H-6578z"/>
			</g>
		</g>
		<g>
			<path class="st8" d="M-6539.5-1177.7v4v11.7v15.7h9.8v44.4h11.7v11.7h11.7v11.7h11.7v11.6h-11.7v11.7h-11.7v11.7h-11.7v53h-5.5v4
				v11.7v15.7l132.5,0v-15.7v-15.7h-9.8v-47.5h-11.7v-11.7h-11.7v-11.7h-11.7v-10.4v-1.3v-10.4h11.7v-11.7h11.7v-11.7h11.7v-39.5
				h9.8v-15.7v-15.7H-6539.5z M-6506.2-1031.6h11.7v-5.9v-5.8h11.7v-5.9v-5.8h11.7v-5.9v-5.8v-5.9v-5.9v-11.7h-11.7v-11.7h-11.7
				v-11.7h-11.7v-32.6h80.7v38.1h-11.7v11.7h-11.7v11.7h-11.7v11.7v1.3v11.7h0.7h11v11.7h0.7h11v11.7h0.7h11v46.2h-80.7V-1031.6z"/>
			<polygon class="st8" points="-6459.2,-1112.7 -6447.5,-1112.7 -6447.5,-1125.7 -6460.6,-1125.7 -6460.6,-1114 -6470.9,-1114 
				-6470.9,-1125.7 -6484,-1125.7 -6484,-1112.7 -6483.3,-1112.7 -6472.3,-1112.7 -6472.3,-1100.9 -6471.6,-1100.9 -6459.2,-1100.9 
							"/>
			<polygon class="st8" points="-6447.5,-1014.5 -6447.5,-1026.2 -6459.2,-1026.2 -6459.2,-1037.9 -6472.3,-1037.9 -6472.3,-1026.2 
				-6484,-1026.2 -6484,-1014.5 -6495.7,-1014.5 -6495.7,-1001.4 -6435.8,-1001.4 -6435.8,-1014.5 			"/>
		</g>
		<rect x="-6665.4" y="-949.6" style="fill:none;" width="278.6" height="155.5"/>
		<text transform="matrix(1 0 0 1 -6648.3613 -878.7909)"><tspan x="0" y="0" class="st8" style="font-family:'Pixellari'; font-size:102.9006px;">Game</tspan><tspan x="-12.9" y="78.8" class="st8" style="font-family:'Pixellari'; font-size:102.9006px;">Watch</tspan></text>
	</g>
	<g>
		<rect x="-5837.1" y="-1275.8" class="st10" width="8.8" height="8.8"/>
		<rect x="-5837.1" y="-1267" class="st10" width="8.8" height="8.8"/>
		<rect x="-5845.9" y="-1258.2" class="st10" width="8.8" height="8.8"/>
		<rect x="-5854.7" y="-1249.5" class="st10" width="8.8" height="8.8"/>
		<rect x="-5845.9" y="-1284.5" class="st10" width="8.8" height="8.8"/>
		<rect x="-5854.7" y="-1293.3" class="st10" width="8.8" height="8.8"/>
		<rect x="-5863.4" y="-1328.3" class="st10" width="8.8" height="35"/>
		<polygon class="st10" points="-5872.2,-1345.8 -5872.2,-1337.1 -5872.2,-1328.3 -5775.8,-1328.3 -5775.8,-1337.1 -5775.8,-1345.8 
					"/>
		<rect x="-5819.6" y="-1275.8" class="st10" width="8.8" height="8.8"/>
		<polygon class="st10" points="-5819.6,-1267 -5819.6,-1263.5 -5807.4,-1263.5 -5807.4,-1279.3 -5823.1,-1279.3 -5823.1,-1263.5 
			-5819.6,-1263.5 -5819.6,-1267 -5816.1,-1267 -5816.1,-1272.3 -5814.4,-1272.3 -5814.4,-1270.5 -5819.6,-1270.5 -5819.6,-1267 
			-5816.1,-1267 		"/>
		<rect x="-5819.6" y="-1267" class="st10" width="8.8" height="8.8"/>
		<polygon class="st10" points="-5819.6,-1258.2 -5819.6,-1254.7 -5807.4,-1254.7 -5807.4,-1270.5 -5823.1,-1270.5 -5823.1,-1254.7 
			-5819.6,-1254.7 -5819.6,-1258.2 -5816.1,-1258.2 -5816.1,-1263.5 -5814.4,-1263.5 -5814.4,-1261.7 -5819.6,-1261.7 
			-5819.6,-1258.2 -5816.1,-1258.2 		"/>
		<rect x="-5810.9" y="-1258.2" class="st10" width="8.8" height="8.8"/>
		<polygon class="st10" points="-5810.9,-1249.5 -5810.9,-1246 -5798.6,-1246 -5798.6,-1261.7 -5814.4,-1261.7 -5814.4,-1246 
			-5810.9,-1246 -5810.9,-1249.5 -5807.4,-1249.5 -5807.4,-1254.7 -5805.6,-1254.7 -5805.6,-1253 -5810.9,-1253 -5810.9,-1249.5 
			-5807.4,-1249.5 		"/>
		<rect x="-5802.1" y="-1249.5" class="st10" width="8.8" height="8.8"/>
		<polygon class="st10" points="-5802.1,-1240.7 -5802.1,-1237.2 -5789.8,-1237.2 -5789.8,-1253 -5805.6,-1253 -5805.6,-1237.2 
			-5802.1,-1237.2 -5802.1,-1240.7 -5798.6,-1240.7 -5798.6,-1246 -5796.8,-1246 -5796.8,-1244.2 -5802.1,-1244.2 -5802.1,-1240.7 
			-5798.6,-1240.7 		"/>
		<rect x="-5810.9" y="-1284.5" class="st10" width="8.8" height="8.8"/>
		<polygon class="st10" points="-5810.9,-1275.8 -5810.9,-1272.3 -5798.6,-1272.3 -5798.6,-1288 -5814.4,-1288 -5814.4,-1272.3 
			-5810.9,-1272.3 -5810.9,-1275.8 -5807.4,-1275.8 -5807.4,-1281 -5805.6,-1281 -5805.6,-1279.3 -5810.9,-1279.3 -5810.9,-1275.8 
			-5807.4,-1275.8 		"/>
		<rect x="-5828.4" y="-1293.3" class="st10" width="8.8" height="8.8"/>
		<rect x="-5837.1" y="-1302" class="st10" width="8.8" height="8.8"/>
		<rect x="-5819.6" y="-1302" class="st10" width="8.8" height="8.8"/>
		<rect x="-5802.1" y="-1293.3" class="st10" width="8.8" height="8.8"/>
		<polygon class="st10" points="-5802.1,-1284.5 -5802.1,-1281 -5789.8,-1281 -5789.8,-1296.8 -5805.6,-1296.8 -5805.6,-1281 
			-5802.1,-1281 -5802.1,-1284.5 -5798.6,-1284.5 -5798.6,-1289.8 -5796.8,-1289.8 -5796.8,-1288 -5802.1,-1288 -5802.1,-1284.5 
			-5798.6,-1284.5 		"/>
		<rect x="-5793.3" y="-1328.3" class="st10" width="8.8" height="35"/>
		<polygon class="st10" points="-5793.3,-1293.3 -5793.3,-1289.8 -5781.1,-1289.8 -5781.1,-1331.8 -5796.8,-1331.8 -5796.8,-1289.8 
			-5793.3,-1289.8 -5793.3,-1293.3 -5789.8,-1293.3 -5789.8,-1324.8 -5788.1,-1324.8 -5788.1,-1296.8 -5793.3,-1296.8 
			-5793.3,-1293.3 -5789.8,-1293.3 		"/>
		<rect x="-5863.4" y="-1240.7" class="st10" width="8.8" height="35"/>
		<polygon class="st10" points="-5868.9,-1205.7 -5868.9,-1196.9 -5868.9,-1188.2 -5775.8,-1188.2 -5775.8,-1196.9 -5775.8,-1205.7 
					"/>
		<polygon class="st10" points="-5810.9,-1223.2 -5810.9,-1232 -5819.6,-1232 -5819.6,-1240.7 -5828.4,-1240.7 -5828.4,-1232 
			-5837.1,-1232 -5837.1,-1223.2 -5845.9,-1223.2 -5845.9,-1214.4 -5802.1,-1214.4 -5802.1,-1223.2 		"/>
		<rect x="-5793.3" y="-1240.7" class="st10" width="8.8" height="35"/>
		<polygon class="st10" points="-5793.3,-1240.7 -5793.3,-1237.2 -5788.1,-1237.2 -5788.1,-1209.2 -5789.8,-1209.2 -5789.8,-1240.7 
			-5793.3,-1240.7 -5793.3,-1237.2 -5793.3,-1240.7 -5796.8,-1240.7 -5796.8,-1202.2 -5781.1,-1202.2 -5781.1,-1244.2 
			-5796.8,-1244.2 -5796.8,-1240.7 		"/>
	</g>
	<g>
		<path class="st11" d="M-5883.9-1188.2h-14.6h-14.6h-14.6h-14.6v-14.3h-14.6v-14.3v-14.3v-14.3v-14.3v-14.3v-14.3v-14.3v-14.3
			v-14.3h14.6v-14.3h14.6h14.6h14.6h14.6h14.6v14.3h14.6v14.3v14.3h-14.6h-14.6v-14.3h-14.6h-14.6h-14.6v14.3v14.3v14.3v14.3v14.3
			v14.3v14.3h14.6h14.6h14.6v-14.3v-14.3h-14.6v-14.3v-14.3h14.6h14.6h14.6v14.3v14.3v14.3v14.3v14.3h-14.3v14.3H-5883.9z"/>
	</g>
	<rect x="-5970.5" y="-1175.2" style="fill:none;" width="208.4" height="164.8"/>
	<text transform="matrix(1 0 0 1 -5957.7461 -1122.1691)"><tspan x="0" y="0" class="st10" style="font-family:'Pixellari'; font-size:77px;">Game</tspan><tspan x="-9.6" y="59" class="st10" style="font-family:'Pixellari'; font-size:77px;">Watch</tspan></text>
</g>
<g id="Background">
	<rect x="-10123.2" y="477" class="st8" width="3846.3" height="1080"/>
	<rect x="-10123.2" y="1557" class="st4" width="3846.4" height="1080"/>
	<g>
		<rect x="-10123.2" y="1555" class="st8" width="88.4" height="116.7"/>
		<rect x="-9920.1" y="1555" class="st8" width="107.1" height="116.7"/>
		<rect x="-9698.3" y="1555" class="st8" width="107.1" height="116.7"/>
		<rect x="-9476.5" y="1555" class="st8" width="107.1" height="116.7"/>
		<rect x="-9254.7" y="1555" class="st8" width="107.1" height="116.7"/>
		<rect x="-9033" y="1555" class="st8" width="107.1" height="116.7"/>
		<rect x="-8811.2" y="1555" class="st8" width="107.1" height="116.7"/>
		<rect x="-8589.4" y="1555" class="st8" width="107.1" height="116.7"/>
		<rect x="-7924.1" y="1555" class="st8" width="107.1" height="116.7"/>
		<rect x="-7702.3" y="1555" class="st8" width="107.1" height="116.7"/>
		<rect x="-7480.5" y="1555" class="st8" width="107.1" height="116.7"/>
		<rect x="-7258.7" y="1555" class="st8" width="107.1" height="116.7"/>
		<rect x="-7037" y="1555" class="st8" width="107.1" height="116.7"/>
		<rect x="-6815.2" y="1555" class="st8" width="107.1" height="116.7"/>
		<rect x="-6593.4" y="1555" class="st8" width="107.1" height="116.7"/>
		<rect x="-6371.6" y="1555" class="st8" width="88.4" height="116.7"/>
	</g>
	<g>
		<g>
			<g>
				<path class="st1" d="M-8290.2,1547.8v66.8h34.6v66.8h-103.9v-233.7h103.9v33.4h31.2v-31.9h-16.5v-68l-153.3,0v33.1h-34.6v300.4
					h34.6v33.4h160.6v-68h9.1v-89h19.6v-19.6h15.3v-23.7H-8290.2z"/>
			</g>
		</g>
		<g>
			<path class="st1" d="M-8225.5,1381.2v6.7v19.6v26.4h16.5v74.5h19.6v19.6h19.6v19.6h19.6v19.5h-19.6v19.6h-19.6v19.6h-19.6v89
				h-9.1v6.7v19.6v26.4l222.3,0v-26.4v-26.4h-16.5v-79.7h-19.6v-19.6h-19.6v-19.6h-19.6V1559v-2.2v-17.4h19.6v-19.6h19.6v-19.6h19.6
				v-66.2h16.5v-26.4v-26.4H-8225.5z M-8169.6,1626.2h19.6v-9.9v-9.7h19.6v-9.9v-9.7h19.6v-9.9v-9.7v-9.9v-9.9v-19.6h-19.6v-19.6
				h-19.6v-19.6h-19.6v-54.7h135.4v64h-19.6v19.6h-19.6v19.6h-19.6v19.6v2.2v19.6h1.1h18.5v19.6h1.1h18.5v19.6h1.1h18.5v77.4h-135.4
				V1626.2z"/>
			<polygon class="st1" points="-8090.9,1490.3 -8071.2,1490.3 -8071.2,1468.4 -8093.1,1468.4 -8093.1,1488.1 -8110.5,1488.1 
				-8110.5,1468.4 -8132.4,1468.4 -8132.4,1490.3 -8131.3,1490.3 -8112.8,1490.3 -8112.8,1509.9 -8111.6,1509.9 -8090.9,1509.9 			
				"/>
			<polygon class="st1" points="-8071.2,1655 -8071.2,1635.3 -8090.9,1635.3 -8090.9,1615.7 -8112.8,1615.7 -8112.8,1635.3 
				-8132.4,1635.3 -8132.4,1655 -8152,1655 -8152,1676.9 -8051.6,1676.9 -8051.6,1655 			"/>
		</g>
		<rect x="-8436.8" y="1763.8" style="fill:none;" width="467.3" height="260.8"/>
		<text transform="matrix(1 0 0 1 -8408.1689 1882.6302)"><tspan x="0" y="0" class="st1" style="font-family:'Pixellari'; font-size:172.6233px;">Game</tspan><tspan x="-21.6" y="132.3" class="st1" style="font-family:'Pixellari'; font-size:172.6233px;">Watch</tspan></text>
	</g>
	<g>
		<g>
			<g>
				<path class="st1" d="M-8221.9,2513.4v16h8.3v16h-25v-56.2h25v8h7.5v-7.7h-4v-16.3l-36.8,0v8h-8.3v72.2h8.3v8h38.6v-16.3h2.2
					v-21.4h4.7v-4.7h3.7v-5.7H-8221.9z"/>
			</g>
		</g>
		<g>
			<path class="st1" d="M-8206.4,2473.3v1.6v4.7v6.3h4v17.9h4.7v4.7h4.7v4.7h4.7v4.7h-4.7v4.7h-4.7v4.7h-4.7v21.4h-2.2v1.6v4.7v6.3
				h53.4v-6.3v-6.3h-4v-19.1h-4.7v-4.7h-4.7v-4.7h-4.7v-4.2v-0.5v-4.2h4.7v-4.7h4.7v-4.7h4.7V2486h4v-6.3v-6.3H-8206.4z
				 M-8192.9,2532.2h4.7v-2.4v-2.3h4.7v-2.4v-2.3h4.7v-2.4v-2.3v-2.4v-2.4v-4.7h-4.7v-4.7h-4.7v-4.7h-4.7V2486h32.5v15.4h-4.7v4.7
				h-4.7v4.7h-4.7v4.7v0.5v4.7h0.3h4.4v4.7h0.3h4.4v4.7h0.3h4.4v18.6h-32.5V2532.2z"/>
			<polygon class="st1" points="-8174,2499.5 -8169.3,2499.5 -8169.3,2494.3 -8174.6,2494.3 -8174.6,2499 -8178.7,2499 
				-8178.7,2494.3 -8184,2494.3 -8184,2499.5 -8183.7,2499.5 -8179.3,2499.5 -8179.3,2504.3 -8179,2504.3 -8174,2504.3 			"/>
			<polygon class="st1" points="-8169.3,2539.1 -8169.3,2534.4 -8174,2534.4 -8174,2529.7 -8179.3,2529.7 -8179.3,2534.4 
				-8184,2534.4 -8184,2539.1 -8188.7,2539.1 -8188.7,2544.4 -8164.6,2544.4 -8164.6,2539.1 			"/>
		</g>
	</g>
</g>
<g id="Layer_2">
</g>
</svg>
